<?xml version="1.0" standalone="no"?>
<!DOCTYPE svg PUBLIC "-//W3C//DTD SVG 1.1//EN" "http://www.w3.org/Graphics/SVG/1.1/DTD/svg11.dtd" >
<svg xmlns="http://www.w3.org/2000/svg">
<metadata>
This is a custom SVG font generated by IcoMoon.
<iconset grid="16"></iconset>
</metadata>
<defs>
<font id="LigatureSymbols" horiz-adv-x="512" >
<font-face units-per-em="512" ascent="480" descent="-32" />
<missing-glyph horiz-adv-x="512" />
<glyph class="hidden" unicode="&#xf000;" d="M0,480L 512 -32L0 -32 z" horiz-adv-x="0" />
<glyph unicode="&#x21;" d="M 250,324l-166.5,0 c-8,0 -14.5,7 -14.5,14l0,21 c0,7 6.5,13.5 14.5,13.5l 166.5,0 c 7,0 13.5-6.5 13.5-13.5l0-21 c0-7.5 -6.5-14 -13.5-14zM 305,243l-277.5,0 c-7.5,0 -13.5,6 -13.5,14l0,20.5 c0,8 6,13.5 13.5,13.5l 277.5,0 c 7.5,0 14-5.5 14-13.5l0-20.5 c0-8 -6.5-14 -14-14zM 263.5,161.5l-194,0 c-8,0 -14,6.5 -14,14l0,21 
c0,7.5 6,14 14,14l 194,0 c 7,0 14-6.5 14-14l0-21 c0-7.5 -7-14 -14-14zM 14.5,124.5l 304.5,0 c 7.5,0 14-7 14-14l0-20.5 c0-8 -6.5-14.5 -14-14.5l-304.5,0 c-8,0 -14.5,6.5 -14.5,14.5l0,20.5 c0,7.5 6.5,14 14.5,14z" horiz-adv-x="332.5"  />
<glyph unicode="&#x22;" d="M0,359l0-21 c0-7 6.5-14 14.5-14l 165.5,0 c 7.5,0 14,6.5 14,14l0,21 c0,7 -6.5,13.5 -14,13.5l-165.5,0 c-8,0 -14.5-6.5 -14.5-13.5zM0,277.5l0-20.5 c0-8 6.5-14 14.5-14l 277,0 c 7.5,0 13.5,6 13.5,14l0,20.5 c0,7.5 -6,13.5 -13.5,13.5l-277,0 c-8,0 -14.5-6 -14.5-13.5zM0,196.5l0-21 c0-7.5 6.5-14 14.5-14l 194,0 
c 7,0 13,6.5 13,14l0,21 c0,7.5 -6,14 -13,14l-194,0 c-8,0 -14.5-6.5 -14.5-14zM0,110.5l0-20.5 c0-8 6.5-14.5 14.5-14.5l 304.5,0 c 7.5,0 14,6.5 14,14.5l0,20.5 c0,7 -6.5,14 -14,14l-304.5,0 c-8,0 -14.5-6.5 -14.5-14z" horiz-adv-x="332.5"  />
<glyph unicode="&#x23;" d="M 319,324l-166.5,0 c-7.5,0 -13.5,7 -13.5,14l0,21 c0,7 6,13.5 13.5,13.5l 166.5,0 c 7.5,0 14-6.5 14-13.5l0-21 c0-7.5 -6.5-14 -14-14zM 319,243l-277.5,0 c-7.5,0 -14,6 -14,14l0,20.5 c0,8 6.5,13.5 14,13.5l 277.5,0 c 7.5,0 14-5.5 14-13.5l0-20.5 c0-8 -6.5-14 -14-14zM 319,161.5l-194,0 c-7.5,0 -14,6.5 -14,14l0,21 
c0,7.5 6.5,14 14,14l 194,0 c 7.5,0 14-6.5 14-14l0-21 c0-7.5 -6.5-14 -14-14zM 14.5,124.5l 304.5,0 c 7.5,0 14-7 14-14l0-20.5 c0-8 -6.5-14.5 -14-14.5l-304.5,0 c-8,0 -14.5,6.5 -14.5,14.5l0,20.5 c0,7.5 6.5,14 14.5,14z" horiz-adv-x="332.5"  />
<glyph unicode="&#x24;" d="M 262.5,289.5l0-77.5 c0-23.5 10-34 19-47c 3-4.5 3.5-9.5 -0.5-13c-9.5-8.5 -28.5-24.5 -38-33.5l-0.5,0.5c-3-3 -7.5-3.5 -11.5-1.5c-16.5,14 -20,20.5 -29,33.5c-27-27.5 -46-36.5 -82-36.5c-42,0 -75,26.5 -75,78.5c0,40.5 22.5,68 53.5,81.5c 27,12 65,13.5 94,17l0,7 c0,12 1,25.5 -6,35.5c-6,9 -18.5,13.5 -28.5,13.5
c-19,0 -35.5-9.5 -39.5-30c-1-4.5 -4.5-9 -9-9.5l-48.5,5c-4,1 -8.5,5 -7,11c 11,59 64,76 111.5,76c 24.5,0 56-6.5 75-24.5c 24.5-23 22-53 22-86zM 192.5,241l0,10.5 c-36.5,0 -74-7.5 -74-50.5c0-21.5 11-36 30-36c 14.5,0 27,8 35,22.5c 9.5,17.5 9,33.5 9,53.5zM 340.5,145.5
c 6-5.5 -1-34 -4-46.5c-1-3.5 2.5-4.5 5-1.5c 19,20.5 19.5,58 14.5,62.5c-5,5 -42.5,5 -63-14c-3-3 -2-6.5 1.5-5.5c 13,3 40.5,10.5 46,5zM 326.5,124.5c 6,5.5 -0.5,12 -6.5,8.5c-41.5-24.5 -87.5-42 -130.5-48c-64.5-8.5 -129.5,6.5 -184.5,29c-4.5,2 -7-3 -3-5.5c 52-36 117.5-60.5 186-51.5
c 49,6.5 103,33 138.5,67.5z" horiz-adv-x="358"  />
<glyph unicode="&#x25;" d="M 233,410.5l-19.5-27.5c 30.5-14.5 52.5-41.5 55-73l-208,0 c 2.5,31.5 24,58.5 54.5,73l-19.5,27.5c-1,2 -0.5,4 1,5s 3.5,0.5 5-1l 20-29c 13,5 27.5,8 43,8s 29.5-3 43-8l 20,29c 1,1.5 3,2 4.5,1s 2-3 1-5zM 120.5,339c 6.5,0 11.5,5 11.5,11.5c0,6 -5,11.5 -11.5,11.5c-6,0 -11.5-5.5 -11.5-11.5c0-6.5 5.5-11.5 11.5-11.5
zM 209.5,339c 6.5,0 11.5,5 11.5,11.5c0,6 -5,11.5 -11.5,11.5c-6,0 -11.5-5.5 -11.5-11.5c0-6.5 5.5-11.5 11.5-11.5zM0,179.5l0,92.5 c0,13 10,24 23.5,24c 13,0 23-11 23-24l0-92.5 c0-13.5 -10-24 -23-24c-13.5,0 -23.5,10.5 -23.5,24zM 281.5,179.5l0,92.5 c0,13 10.5,24 23.5,24s 23.5-11 23.5-24l0-92.5 c0-13.5 -10.5-24 -23.5-24
s-23.5,10.5 -23.5,24zM 61,126l0,169.5 l 208,0 l0-169.5 c0-10 -8.5-18.5 -18.5-18.5l-20.5,0 l0-52.5 c0-13 -10.5-23.5 -23.5-23.5s-23.5,10.5 -23.5,23.5l0,52.5 l-36.5,0 l0-52.5 c0-13 -10-23.5 -23-23.5c-13.5,0 -23.5,10.5 -23.5,23.5l0,52.5 l-21,0 c-9.5,0 -18,8.5 -18,18.5z" horiz-adv-x="328.5"  />
<glyph unicode="&#x26;" d="M 288.5,192.5l-1.5-1c-7.5-4 -12.5-7 -14.5-7c-1.5-0.5 -2.5-1 -3.5-1.5c-3.5,6.5 -13.5,26 -28.5,52c-18,33 -69.5,154.5 -71,159.5c-1,5 0,10 3.5,12c 0.5,0.5 1.5,0.5 2.5,0.5c 3,0 6.5-2 8.5-3.5c 3-2.5 61.5-92 93-149c 19-34.5 25.5-47 28-51.5c-1-0.5 -2-1 -3-2c-2-2.5 -9-6.5 -12-8l-0.5,0 zM 176.5,342.5l 6.5-3.5
c 11-6 13.5-19 8-30l-43.5,25c 4,7 11.5,11 18.5,11c 4,0 7.5-0.5 10.5-2.5zM 184,297l 0.5-0.5c 1.5-0.5 1.5-3 1-4s-1.5-1.5 -2.5-1.5l-2,0 l-0.5,0.5l-1.5-2.5l 0.5,0 c 1.5-1 2-2.5 1.5-4c-1-1 -1.5-1.5 -2.5-1.5c-0.5,0 -1,0 -1.5,0.5l-0.5,0.5l-3-5.5l 0.5-0.5c 1-0.5 1.5-2.5 1-3.5s-1.5-1.5 -2.5-1.5c-0.5,0 -1,0 -1.5,0.5l-0.5,0 l-1.5-2.5l 0.5-0.5c 1.5-1 2-2.5 1-4
c-0.5-1 -1-1.5 -2-1.5c-0.5,0 -1,0.5 -1.5,0.5l-0.5,0.5l-1.5-2l-2-3.5l-43.5,25l 2,3.5l 1.5,2l-0.5,0.5c-1.5,0.5 -2,3 -1,4c 0.5,1 1,1.5 2,1.5c 0.5,0 1,0 1.5-0.5l 0.5,0 l 1.5,2l-0.5,0.5c-1.5,1 -2,2.5 -1,4c 0.5,1 1.5,1.5 2.5,1.5c 0.5,0 1-0.5 1.5-0.5l 0.5-0.5l 3,5.5l-0.5,0 c-1.5,1 -2,2.5 -1,4c 0.5,1 1,1.5 2,1.5c 0.5,0 1-0.5 1.5-0.5l 0.5-0.5l 1.5,3l-0.5,0.5c-1.5,0.5 -2,2.5 -1,3.5
c 0.5,1 1.5,1.5 2.5,1.5l 2,0 l 0.5-0.5l 2,3.5l 43.5-25zM 28,128l 86,149l 43.5-25.5l-86-148.5l-2-3.5c-7.5,3 -15,7 -22,11c-7,4.5 -14.5,9.5 -21,14.5l 0.5,1.5zM0,150l0,74.5 l 66.5,0 l-43.5-74.5l-23,0 zM 260.5,166l 7-10.5l 2.5-2.5l 1.5-3l-155.5,0 l 43.5,74.5l 69.5,0 c 17-30.5 27.5-50.5 27.5-51c 1-1.5 1.5-2.5 2.5-3c 0.5-1.5 1-3.5 1.5-4.5zM 328.5,190l-4.5,10.5
c-1,1.5 -1.5,2.5 -2.5,3.5c-0.5,1.5 -1,3 -1.5,4l-4,8c-1.5,2.5 -3,5 -5,8.5l 73,0 l0-74.5 l-37.5,0 c0,0.5 -0.5,1.5 -0.5,2.5l-5.5,11.5c-0.5,1 -1,2.5 -2,3.5c0,1.5 -0.5,2.5 -1,3.5l-5,11.5c-0.5,1 -2,2 -2.5,3c-0.5,1.5 -1,3.5 -1.5,4.5zM 326.5,157.5l 5-10l 0.5-1.5s-7.5-6.5 -14-10s-15.5-6.5 -15.5-6.5l-1.5,2l-5.5,9l0,4 l-4,3l-7.5,10.5l0,3.5 l-3.5,2.5l-4,6.5l-2.5,4
c 3.5,0.5 9.5,3 18.5,8c 0.5,0 0.5,0.5 1,0.5s 0.5,0.5 1,0.5c 7.5,4 13,7.5 15.5,11l 2-4.5l 3-6.5l0-5.5 l 3.5-2l 5-11.5l-0.5-5zM 335,135l 42-63c 5.5-10 0.5-22 -9.5-27.5c-3.5-2 -7.5-3 -11-3c-7,0 -13.5,3 -17.5,9.5l-30.5,69.5c 3.5,1.5 9.5,4 14.5,6.5c 4,2.5 9,5.5 12,8zM 16,49.5l-2.5-4.5c-0.5-1 -2-1.5 -3.5-1.5l-0.5,0 c-0.5,0 -1,0 -1,0.5
c-0.5,0 -0.5,0.5 -1,0.5c-1,1 -1,3 -0.5,4l 2.5,4.5l 14.5,61c 6-4.5 12.5-9 18.5-12.5s 12.5-6.5 19-9z" horiz-adv-x="384"  />
<glyph unicode="&#x27;" d="M 213,364.5c 4,11 6.5,20.5 6.5,29.5c0,1.5 -0.5,2.5 -0.5,4s-0.5,3.5 -1,5.5c-25-5.5 -42.5-16.5 -53.5-32.5c-11-15.5 -16.5-34 -17-55.5c 9,1 16.5,2.5 22,4c 7.5,2.5 15.5,7.5 23.5,15c 9,9 16,20 20,30zM 184.5,314.5c-15-5 -25.5-7 -31-7c-4.5,0 -14,2 -29.5,6c-15,4.5 -27.5,7 -38.5,7c-24.5,0 -45-10.5 -61.5-31.5
c-16-21 -24-47.5 -24-80.5c0-35.5 10.5-71.5 31.5-108.5c 21.5-37 43.5-55 65-55c 7,0 16,2.5 28.5,7c 11.5,4.5 21.5,7 30.5,7s 20-2 32.5-6.5c 13-4.5 23-6.5 30.5-6.5c 18.5,0 37,14 55.5,41.5c 6,9 11.5,18.5 16,27.5c 4,8.5 7.5,17.5 10.5,26c-13.5,4 -25,13.5 -34.5,27.5c-9.5,14.5 -14.5,30.5 -14.5,48c0,16.5 4.5,31 13.5,44.5
c 5.5,7 14,16 25,25.5c-3.5,4.5 -7.5,9 -11,12.5c-4,3.5 -7.5,6.5 -11,9c-14,9 -29.5,14 -46.5,14c-10,0 -22.5-3 -37-7.5z" horiz-adv-x="300.5"  />
<glyph unicode="&#x28;" d="M 233,397.5l-107.5,0 c-13,0 -22.5-10 -22.5-23l0-125 l-85,0 c-8,0 -13.5-3.5 -17-11c-0.5-2.5 -1-4.5 -1-6c0-5 1.5-9.5 5-13l 162-161.5c 6-7.5 18-7 25,0l 161.5,161.5c 11,10 3.5,30 -13,30l-85.5,0 l0,125 c0,13 -9,23 -22,23z" horiz-adv-x="358"  />
<glyph unicode="&#x29;" d="M 344.5,173.5l0,107.5 c0,13 -9.5,22.5 -22.5,22.5l-125,0 l0,85 c0,8 -4,13.5 -11,17c-2.5,0.5 -5,1 -7,1c-5,0 -9-1.5 -12-5l-162-162c-7-6 -6.5-18 0-25l 162-162c 10-11 30-3.5 30,13l0,86 l 125,0 c 13,0 22.5,9 22.5,22z" horiz-adv-x="344.5"  />
<glyph unicode="&#x2a;" d="M0,275.5l0-107.5 c0-13 9.5-22.5 23-22.5l 125,0 l0-86 c0-8 3.5-13 11-16.5c 2-0.5 4.5-1 6.5-1c 5,0 9,1.5 12.5,5l 161.5,162.5c 7,6 7,18 0,25l-161.5,161c-10,11 -30,4 -30-12.5l0-85.5 l-125,0 c-13.5,0 -23-9 -23-22z" horiz-adv-x="345"  />
<glyph unicode="&#x2b;" d="M 125.5,50.5l 107.5,0 c 13,0 22.5,10 22.5,23l0,125 l 85,0 c 8,0 14,4 17,11.5c 1,2.5 1,4 1,6c0,5 -1.5,9 -5,12.5l-162,161.5c-5.5,7.5 -18,7 -25,0l-161.5-161.5c-11-10 -3.5-30 13-30l 85.5,0 l0-125 c0-13 9-23 22-23z" horiz-adv-x="358"  />
<glyph unicode="&#x2c;" d="M 244.5,365l0-281.5 l-244.5,140.5z" horiz-adv-x="244.5"  />
<glyph unicode="&#x2d;" d="M 126.5,350.5l 226,0 c 17.5,0 31.5-14 31.5-31.5l0-189.5 c0-17.5 -14-32 -31.5-32l-226,0 l-126.5,126.5zM 283,146.5l 28.5,28l-50,49.5l 50,49.5l-28.5,28.5l-49.5-49.5l-49,49.5l-28.5-28l 49.5-50l-49.5-49l 28.5-28l 49.5,49z" horiz-adv-x="384"  />
<glyph unicode="&#x2e;" d="M 252.5,336.5l0,18.5 l 54.5,0 l0,35 l-185.5,0 s-29.5-22.5 -29.5-22.5l0-159.5 s 41-30.5 59-68c 18-38 17-82 17-82l 47,0 s 2,36 0,64.5c-2.5,29 -12,64.5 -12,64.5l 130,0 l0,41 l-80.5,0 l0,18.5 l 80.5,0 l0,36.5 l-80.5,0 l0,18.5 l 65,0 l0,35 l-65,0 zM0,365.5l 71,0 l0-154 l-71,0 l0,154 z" horiz-adv-x="332.5"  />
<glyph unicode="&#x2f;" d="M 325.5,326.5c 49-69.5 42.5-167 -20-229.5s-159-68.5 -229-20c-8,6 -17,13 -24.5,20c-7.5,7.5 -14,16 -19.5,24.5c-49,69.5 -43,167 19.5,229.5s 159.5,68.5 229.5,20c 8-6 16.5-13 24-20c 7.5-7.5 14.5-16 20-24.5zM 64.5,154l 185,185c-52,31.5 -121,25 -165.5-19.5c-45-45 -51-114 -19.5-165.5z
M 293.5,294l-185-184.5c 52-31.5 121-25 165.5,19.5c 45,45 51,113.5 19.5,165z" horiz-adv-x="357.5"  />
<glyph unicode="&#x30;" d="M0,75.5l 12.5,0 l0,297 l-12.5,0 l0-297 zM 37.5,75.5l 24.5,0 l0,297 l-24.5,0 l0-297 zM 86.5,75.5l 25,0 l0,297 l-25,0 l0-297 zM 136,75.5l 50,0 l0,297 l-50,0 l0-297 zM 210.5,75.5l 37.5,0 l0,297 l-37.5,0 l0-297 zM 272.5,75.5l 25,0 l0,297 l-25,0 l0-297 zM 322,75.5l 12.5,0 l0,297 l-12.5,0 l0-297 zM 359.5,75.5l 24.5,0 l0,297 l-24.5,0 l0-297 z" horiz-adv-x="384"  />
<glyph unicode="&#x31;" d="M 141,76l-102.5,0 c-20,0 -37.5,14.5 -38.5,35c 30,22.5 49,50.5 61.5,81.5c 12,31 16.5,65 19,101c 2,24.5 18,46.5 40,63c 12.5,9 26,16.5 40,21c0,1.5 -1,3 -1,4c0,18 14.5,32 32.5,32s 32.5-14 32.5-32c0-1 -1-3 -1-4c 14-4.5 28-12 40.5-20.5c 22-16 39.5-38 39.5-62c 2-35.5 7.5-71 20-102
c 12.5-31.5 31.5-60 60.5-82c-1-20.5 -18.5-35 -38.5-35l-102.5,0 c-5-24 -25.5-41.5 -50.5-41.5s-46,17.5 -51.5,41.5zM 51.5,111l 281,0 c-22.5,25 -38,53.5 -47,84c-9.5,30 -14,62 -16,95c-1,16 -13.5,30.5 -29,41.5c-15,11 -33,17 -48,17c-14,0 -32.5-7 -48.5-17c-15.5-10 -28.5-25 -29-40
c-1.5-32.5 -6.5-65 -15.5-95.5c-10-31 -26-60 -48-85zM 192.5,50.5c 2.5,0 3.5,1.5 3.5,4c0,3 -1,4.5 -3.5,4.5c-16,0 -28,12.5 -28,28c0,3 -1.5,4.5 -4,4.5c-3,0 -5-1.5 -5-4.5c0-20 16.5-36.5 37-36.5z" horiz-adv-x="384"  />
<glyph unicode="&#x32;" d="M 286.5,284.5l 28-30c 16,10 34,16.5 54,16.5c 50.5,0 92.5-41.5 92.5-92.5c0-50.5 -42-92 -92.5-92c-45.5,0 -83.5,32.5 -91,76.5l-41.5-2.5l-0.5,0 c-3.5,0 -6,2 -8.5,4l-85,105.5l-5-10.5c 28-16 48-46 48-81c0-50.5 -42-92 -93-92c-50.5,0 -92,41.5 -92,92c0,51 41.5,92.5 92,92.5
c 8,0 15.5-1 23-2.5l 21,55l-57.5,15.5c-5.5,1.5 -9.5,7.5 -8,13c 2,6 8,10 14,8.5l 69-19.5c 3-0.5 6.5-3 7.5-6c 1-2 1.5-5.5 0.5-8.5l-5-11.5l 110.5-21l 14.5,43.5l-20-1.5l-0.5,0 c-6,0 -11,6 -11,11.5s 4.5,11 11,11.5l 65,3c 6,0 11.5-5 11.5-11c 0.5-6.5 -5-11 -10.5-11.5l-22-1zM 231.5,195l 27.5,78.5l-107.5,19.5z
M 251.5,183.5l 25,1.5c 1,20.5 9,39 22,54l-20.5,22zM 83,183l 24,64c-4.5,1 -10,1.5 -15,1.5c-38.5,0 -69.5-31 -69.5-70c0-38.5 31-69.5 69.5-69.5s 70.5,31 70.5,69.5c0,25.5 -13.5,48 -33.5,60l-25-63.5c-2.5-5.5 -9-8 -15-6c-5.5,2.5 -8,8.5 -6,14zM 368.5,168l-68.5-4c 7-31.5 34.5-55 68.5-55
c 38.5,0 70,31 70,69.5c0,39 -31.5,70 -70,70c-14.5,0 -27.5-3.5 -38.5-11l 46.5-51.5c 2.5-3.5 4-8 2-11.5c-1.5-4 -5.5-6.5 -10-6.5zM 299,186l 45.5,2.5l-31,34c-8-11 -13.5-22.5 -14.5-36.5z" horiz-adv-x="460.5"  />
<glyph unicode="&#x33;" d="M0,71.5l0-21.5 c 17,0.5 31,1 41,1.5c 10,0 17.5,0.5 21,0.5c 26.5,2 49,3.5 68.5,3l 45-1c 39,0 68,5 92,16c 11.5,5.5 21.5,13.5 31.5,24.5c 7.5,7.5 13,16.5 16.5,26.5c 4,13.5 6,25.5 6,36.5c0,40 -27.5,74 -81.5,86.5c 8.5,4 16.5,8 22,11s 10,5 12.5,7c 19,14 28.5,30.5 28.5,52.5c0,9.5 -1.5,19 -4.5,27.5c-6,17.5 -19.5,32 -38.5,41
c-8.5,5 -16.5,7.5 -22,8.5c-15,4 -29.5,6 -43.5,6l-17.5,0 c-3.5,0 -6.5,0 -8.5,0.5l-5,0 l-3,0 c-1,0 -2.5,0 -4-0.5l-10,0 l-86.5-2.5l-59.5-1.5l 1-19c 14-2 22.5-3 26-3c 7,0 12.5-1.5 15.5-3.5c 1.5,0 2.5-1 3-2c 1-3.5 2-11 2.5-25c 1-25 1-45 1-60c 0.5-15.5 0.5-26 1.5-32l0-112.5 c0-19.5 -0.5-34 -2.5-44
c-0.5-3.5 -2-7 -4.5-11c-7-3 -16-6 -28-7.5c-6-1 -11.5-2 -16-2.5zM 123.5,251.5l0,39.5 c 1,27.5 0,47.5 -0.5,63.5c-1,7 -1,13.5 -1,17c 12,2.5 21.5,3.5 29.5,3.5c 26,0 45.5-5.5 58.5-17.5c 13-11 19.5-25 19.5-42.5c0-47.5 -28-65.5 -81-65.5c-9,0 -17.5,0.5 -25,2zM 123.5,153.5l0,72 c 5,1 12,2 23,2
c 25.5,0.5 45-2 57-7c 24.5-9 41.5-35 41.5-69.5c0-16.5 -3.5-29.5 -9-41c-6-11.5 -14.5-19.5 -27.5-25.5c-26.5-12.5 -59.5-11.5 -82-2c-1.5,4 -2,7 -2,9.5z" horiz-adv-x="307"  />
<glyph unicode="&#x34;" d="M0,97l0,216 s 27,40.5 98,40.5c 71.5,0 94-38.5 94-38.5s 22.5,38.5 94,38.5c 71,0 98-40.5 98-40.5l0-216 s-47.5,35 -99,35c-51,0 -93-37.5 -93-37.5s-42,37.5 -93,37.5c-51.5,0 -99-35 -99-35zM 32.5,304.5l0-157 s 20.5,15.5 69.5,15.5c 48.5,0 74-29 74-29l0,163.5 s-34.5,25 -78,25
c-43,0 -65.5-18 -65.5-18zM 208,297.5l0-163.5 s 24,29 74,29c 49.5,0 69.5-15.5 69.5-15.5l0,157 s-22.5,18 -65.5,18c-43.5,0 -78-25 -78-25z" horiz-adv-x="384"  />
<glyph unicode="&#x35;" d="M 19.5,390.5l 247.5,0 c 20,0 35.5-17 35.5-37.5l0-253 c0-25 -15.5-42.5 -38.5-42.5l-242.5,0 c-15.5,0 -21.5,12 -21.5,19l0,295.5 c0,9 7,18.5 19.5,18.5zM 67,78.5l 197,0 c 11,0 17.5,8 17.5,21.5l0,253 c0,7.5 -6,16.5 -14.5,16.5l-23.5,0 l0-191.5 l-69,22l-67-22l0,191.5 l-40.5,0 l0-291 zM 139,289.5l0-18.5 l 27.5,0 l0-28 l 18.5,0 l0,28 l 27.5,0 l0,18.5 l-27.5,0 l0,28 l-18.5,0 l0-28 l-27.5,0 z" horiz-adv-x="302.5"  />
<glyph unicode="&#x36;" d="M 20.5,398l 262.5,0 c 11.5,0 20.5-9 20.5-20.5l0-296 c0-11.5 -9-20.5 -20.5-20.5l-67.5,0 l0,66.5 l-127.5,0 l0-66.5 l-67.5,0 c-11.5,0 -20.5,9 -20.5,20.5l0,296 c0,11.5 9,20.5 20.5,20.5zM 45,331l 213.5,0 l0,25 l-213.5,0 l0-25 zM 45,273.5l 213.5,0 l0,25 l-213.5,0 l0-25 zM 45,216l 213.5,0 l0,25 l-213.5,0 l0-25 zM 45,158.5l 213.5,0 l0,25 l-213.5,0 l0-25 zM 145,50l-43.5,0 l0,64 l 43.5,0 l0-64 z
M 202,50l-43.5,0 l0,64 l 43.5,0 l0-64 z" horiz-adv-x="303.5"  />
<glyph unicode="&#x37;" d="M0,123.5l0,217 c0,7 4,16 9.5,21.5c 1.5,1.5 3.5,2.5 5,3.5l 0.5,0 c 24,18.5 55.5,32 91.5,39.5c 19,3.5 39,5.5 60,5.5s 41-2 60-5.5c 36-7.5 67.5-21 91.5-39.5l 0.5,0 c 1.5-1 3-2 4.5-3.5c 5.5-5.5 10-14.5 10-21.5l0-217 c0-16 -11-28.5 -25.5-32l0-29 c0-13.5 -11-25 -24.5-25c-14,0 -25,11.5 -25,25l0,28 l-183,0 l0-28 
c0-13.5 -11.5-25 -25-25c-14,0 -25,11.5 -25,25l0,29 c-14.5,3.5 -25,16 -25,32zM 250,373l-167,0 c-9,0 -16.5-7.5 -16.5-16.5c0-8.5 7.5-16 16.5-16l 167,0 c 9,0 16,7.5 16,16c0,9 -7,16.5 -16,16.5zM 50,207l 232.5,0 c 9,0 16.5,8 16.5,17l0,82.5 c0,9 -7.5,17 -16.5,17l-232.5,0 c-9,0 -16-8 -16-17l0-82.5 
c0-9 7-17 16-17zM 68,123.5c 14.5,0 26,12 26,26.5c0,15 -11.5,26.5 -26,26.5c-15,0 -26.5-11.5 -26.5-26.5c0-14.5 11.5-26.5 26.5-26.5zM 264.5,123.5c 15,0 27,12 27,26.5c0,15 -12,26.5 -27,26.5c-14.5,0 -26-11.5 -26-26.5c0-14.5 11.5-26.5 26-26.5z" horiz-adv-x="332.5"  />
<glyph unicode="&#x38;" d="M 292.5,340.5l 34,0 c 23,0 42-18.5 42-42l0-182 c0-23 -19-42 -42-42l-284.5,0 c-23,0 -42,19 -42,42l0,182 c0,23.5 19,42 42,42l 34.5,0 c 8.5,13.5 24,33 38,33l 139.5,0 c 14,0 30-19.5 38.5-33zM 183,127.5c 51.5,0 93.5,42 93.5,93.5c0,52 -42,94 -93.5,94c-52,0 -94.5-42 -94.5-94c0-51.5 42.5-93.5 94.5-93.5z
M 184.5,277.5c 31,0 56-25.5 56-56.5c0-30.5 -25-56 -56-56s-56.5,25.5 -56.5,56c0,31 25.5,56.5 56.5,56.5z" horiz-adv-x="368.5"  />
<glyph unicode="&#x39;" d="M 319,365l 57-114.5c 1-1.5 1.5-3.5 2-5c 3.5-9 6-21.5 6-29.5l0-54.5 c0-17 -11.5-31 -27.5-35l0-32 c0-15.5 -12.5-27.5 -27.5-27.5c-15.5,0 -27.5,12 -27.5,27.5l0,31 l-219,0 l0-31 c0-15.5 -12-27.5 -27.5-27.5c-15,0 -27.5,12 -27.5,27.5l0,32 c-16,4 -27.5,18 -27.5,35l0,54.5 c0,8 2.5,20.5 6,29.5c 0.5,1.5 1,3.5 2,5l 57,114.5
c 4.5,8.5 16.5,16.5 26.5,16.5l 201,0 c 10,0 22-8 26.5-16.5zM 88.5,330.5l-30.5-69.5c-1.5-2.5 -1.5-5.5 -1.5-7.5l 271,0 c0,2 0,5 -1.5,7.5l-30.5,69.5c-4,9 -16,17 -25.5,17l-156,0 c-9.5,0 -21.5-8 -25.5-17zM 75,161.5c 16,0 28.5,13 28.5,29.5c0,16 -12.5,28.5 -28.5,28.5s-29.5-12.5 -29.5-28.5c0-16.5 13.5-29.5 29.5-29.5zM 309,161.5
c 16,0 29.5,13 29.5,29.5c0,16 -13.5,28.5 -29.5,28.5s-28.5-12.5 -28.5-28.5c0-16.5 12.5-29.5 28.5-29.5z" horiz-adv-x="384"  />
<glyph unicode="&#x3a;" d="M 41.5,403.5l-27.5-28l 248,0 l-27.5,28l-193,0 zM 275.5,265.5l-275.5,0 l0,96.5 l 275.5,0 l0-96.5 zM 193,293l0,27.5 l-110,0 l0-27.5 l 13.5,0 l0,14 l 82.5,0 l0-14 l 14,0 zM 275.5,155l-275.5,0 l0,96.5 l 275.5,0 l0-96.5 zM 193,182.5l0,28 l-110,0 l0-28 l 13.5,0 l0,14 l 82.5,0 l0-14 l 14,0 zM 275.5,45l-275.5,0 l0,96 l 275.5,0 l0-96 zM 193,72.5l0,27.5 l-110,0 l0-27.5 l 13.5,0 l0,14 l 82.5,0 l0-14 l 14,0 z" horiz-adv-x="275"  />
<glyph unicode="&#x3b;" d="M 310,399l-152-218l-105,78l-53-73.5l 179-136.5l 205,294z" horiz-adv-x="384"  />
<glyph unicode="&#x3c;" d="M 340,303.5l-161,0 c-15.5,0 -29.5-5 -42-12.5c-21.5-13.5 -36-37.5 -37-64.5l-62,107.5c 33,42 83.5,69.5 141,69.5c 70.5,0 132-41 161-100zM 30,324l 80-139c 0.5-0.5 0.5-1 1-1.5c 7-12.5 18-22.5 31-29.5c 11.5-5.5 23.5-9.5 37-9.5s 26,4 37.5,9.5l-62.5-107.5c-87,12.5 -154,87 -154,177.5
c0,37 11,71.5 30,100zM 221,291l 124.5,0 c 8-20.5 13-43.5 13-67c0-99 -80.5-179 -179.5-179c-4,0 -7.5,0 -11.5,0.5l 80,138c 0.5,0.5 0.5,1 1,1.5c 6.5,12 10,25 10,39l0,2.5 c-1,27 -16,51 -37.5,64.5zM 119.5,224c0,33.5 26,60 59.5,60s 60-26.5 60-60s-26.5-60 -60-60s-59.5,26.5 -59.5,60z" horiz-adv-x="358"  />
<glyph unicode="&#x3d;" d="M 396.5,237l 13-13l-13-8.5l 12-18.5l-20.5-2c 1,0 8-16 8-16l-17,2.5c0-2 -1-26 -1-26l-9.5,7l 1-13l-13,7l 1-17.5l-5,4.5c 1-7 4-21 5-21.5c-2.5,0 -15.5,4.5 -15.5,4.5c-1-4 -3-21.5 -3-21.5l-10.5,5.5l-2-23l-6.5,5.5c 2-15 3.5-38.5 -11-40c-14-1.5 -27,16 -30.5,29.5c-1,1.5 -1.5,2.5 -1.5,2.5
c-3.5-5 -15.5-15.5 -15.5-15.5l-4.5,14l-8-10c0-12 -3-25.5 -13-28c-19.5-5 -31.5,20.5 -35,28.5l0,1 c-8-1.5 -34-6.5 -61.5-7.5c-1-9.5 -7.5-18.5 -19.5-18.5c-14,0 -25,12 -27,23c-2,1 -4,1.5 -6,2.5c-2.5-11 -8-22.5 -14-25c-9.5-4 -32.5,3.5 -34,15.5c-0.5,2.5 -0.5,6 -0.5,9.5l-18.5-6.5s 2,13.5 3.5,16.5l-20,10
s 6.5,6.5 11.5,10c 1,1 2,1.5 3,2.5l-18,9s 11,8 16,10.5c0,0 -12.5,6 -16,8c0,0 12.5,9 17,11c 0.5,0 -16.5,18 -16.5,18s 7,3 12,4.5c-2.5,0 -8,11.5 -11.5,15c0,0 10,2.5 17,3l-10.5,16.5s 16.5,0.5 18,0.5l-7,16s 14-1.5 18-3.5l-6,18l 14.5-1l-3.5,19s 19.5-7 21.5-8c0,0 -3.5,16.5 0,12.5c 2.5-3 16.5-17 20.5-20
c 3.5-2 42.5-18 51.5-20.5c 5.5-2 20.5,5 30,10.5c-11.5,3 -29.5,9.5 -30,12.5c 2.5,4.5 26.5,5.5 39.5,26c 13,21 13,42.5 13,42.5l-7,7.5l 10,5.5c-2.5,1 -14,14.5 -15.5,45.5c-1.5,11 -9.5,32 -9.5,32l 7-3.5l 1.5,11.5l 9-9.5c 3.5,2.5 6.5,10 6.5,10s0-6 2-11.5c 6-2 36.5-14 41.5-27.5s 12-18 12-22c 1,3.5 8,9 8,9l-1.5-9.5
c 2,0 43.5-5 43.5-5l 1.5,10l 5.5-5s 18.5,31.5 23.5,42.5c 5,11.5 17.5,21 17.5,21l-8-16.5c 6,3.5 22.5,13 22.5,13c-4-3 -11-10 -10-13c 6.5-12 16.5-68.5 7.5-81.5c 16,0 4.5-4 4.5-4l-5.5-3.5c0-3 3-20 9.5-27.5c 7.5-9.5 13-16 16.5-18c 5-1.5 29.5-10 29.5-10zM 371,167l-1,21.5c 6-1.5 13-3 14.5-2
c-0.5,5.5 -5.5,9.5 -5,13c0,0 15.5,4 17,3c0,0 -11,13 -11,14.5c0,0 10.5,4 11,6.5c 1,1.5 -10,9 -12.5,13c0,0 9.5,6.5 12,8c0,0 -6.5,1.5 -12,5c-13,3.5 -18.5,15.5 -20.5,19.5c-1.5,4 -17,24.5 -17.5,34.5c 5,16 11,57.5 -6.5,82.5c-2.5,4 -7.5-1.5 -7.5-1.5c-2.5-2 -25.5-43.5 -25.5-48.5c-2,0 -5,0 -5-2.5
c-5,1 -50,5 -56.5-1.5c-2.5,5.5 -17.5,37 -35,47c-18,10 -31.5,8 -31.5,8c 1-6 1.5-49.5 19.5-67.5c-8.5-2.5 -10-5.5 -10-5.5l 6.5-4.5c-1.5-2 -5.5-41.5 -20-54.5c-10-9 -26-18.5 -26-18.5c 1.5-2 11-7 19.5-9c 4.5,2.5 7.5,5 7.5,5l-3.5-5.5c 3.5-0.5 7-0.5 9,0.5c-10-7 -15-12 -15-12
c 1-1 13.5-4 13.5-4c-2-2 -8.5-11.5 -8.5-11.5c0-0.5 11.5-3 11.5-3c-1-1 -5-8.5 -5-8.5s 11.5-1 17-7c 0.5-0.5 0-0.5 -0.5-0.5c 3-2 5.5-3.5 7-4.5c-4,1 -25.5,7 -30,6.5c 2,3.5 4.5,10.5 4.5,10.5l-14,4l 10.5,12l-15,4c-11.5-4.5 -26.5-8.5 -38.5-1.5c-15.5,9 -46.5,16.5 -46.5,17.5c-8.5,8 -21,10 -21,10l 1.5-16
c-2.5,0 -11.5-0.5 -13,1c-1-1.5 4.5-14 4.5-14c 1-1 -16,1.5 -16,1.5c0-1.5 8-13.5 10.5-15c-5,0.5 -19.5,0 -19.5,0c0-1 11.5-15.5 11.5-15.5c-4,0 -16.5-3 -16.5-3l 14-14.5c-2.5-1 -14.5-3.5 -14.5-3.5c0-1 12-15 15.5-15c-8.5-2 -15.5-11 -15.5-11s 14-6.5 15.5-6.5c-3-2 -15-12 -15-12l 16.5-6.5
c-5.5-4 -14-12 -14-12s 14-6.5 18-5l-5.5-13.5l 10,5c 0.5,7.5 2,14 4,14.5c 1,0.5 1.5,0 3-2.5c 4.5-11 -6.5-33 14.5-38c 15.5-4 18.5,19.5 21,35.5c0,0 1.5,1.5 3,0.5c 2,0 4-0.5 5-3c 0.5-1 0.5-3.5 0-7c 24.5-8.5 90-7 108.5-0.5c-1.5,5.5 -2,10.5 -1.5,15c 1.5,4 7-2 7-2c-2-17.5 9.5-50 26-47
c 14,3 13,26 12.5,43l-17-10.5c 1,0.5 -5,9 -4.5,18c0,0 5.5-7.5 9-10.5c 3,2.5 7,4.5 13,10.5c 4-6 8-15 8-15l 9,10l 5.5-11.5l 13,12.5l 9-11.5s 9,13 9,14.5c0,0 5.5-9 6-9.5c 2,0 9.5,17.5 9.5,17.5s 7.5-6 9.5-5.5c 0.5,3.5 3,18 3,17l 9-3.5s 4.5,18 5.5,20.5c 2.5-1 6-1 8.5-2.5c0,0 -1.5,1 -2,16l-10,7.5
l-12.5-20.5l-13.5,14s-14-17 -18.5-18c-3,2.5 -2,11 -2,11c-3.5-4.5 -16.5-13.5 -16.5-13.5c0,2.5 -3,11 -3,11l-16,2.5c 1.5,0 18.5,4.5 18.5,4.5l 4-10.5l 15,13s 2.5-9 2.5-10.5c0,0 17,15.5 17,17.5c0,0 10-15 12.5-14c 2.5,2 11,21 11,21.5c0,0 11.5-8 13-11.5c0,0.5 3.5,14 3.5,14s 13-9 13-7.5l-3.5,16.5zM 342,318.5l-9.5,1.5
s 3.5,3 6,5.5c-1.5,1 -7.5,2.5 -12,2c 1,3 11.5,6 9.5,8c-13-2 -16-3.5 -17.5-8c-0.5-0.5 -0.5-1.5 -1-2c-2,3 -4,6 -4,7c0,4 15,29.5 20.5,37.5c 7,10 17.5-51.5 8-60c-2.5,2 -5,3.5 -5,3.5s 5.5,3 5,5zM 210.5,326l-7,1.5c-12.5,13 -13.5,46 -13.5,46s 10.5-3 17-5c 16.5-9.5 25.5-39.5 26-41.5l-1.5-1
c-3.5,2 -14,8 -18.5,9.5c 7.5-7 -3.5,0 -3.5,0l 9.5-8.5c-0.5,0 -13,5.5 -13,5.5c 1-1 4.5-6.5 4.5-6.5zM 316.5,287l0,0.5 c-2,5.5 -1.5,11 0.5,14c 1.5,2 3.5,3 5.5,3c 3,0 7-1.5 11-8.5c 5-10 2-19.5 0-23.5c-1.5-3 -4.5-3.5 -6-3.5c-5,0 -7,6 -11,18zM 262.5,303c 5,0 11-4.5 11.5-12c 1.5-15.5 -2.5-20.5 -6-21.5
c-1,0 -2-0.5 -3-0.5c-6,0 -7.5,7.5 -9,15c-0.5,2.5 -1,5 -2,7c-0.5,3 -0.5,6.5 1.5,8.5c 1.5,2.5 4,3.5 7,3.5zM 270,288.5c 0.5,1.5 0,5 -1.5,7c0,0 -0.5,0 -0.5,0.5c-6.5,6 -1.5-10.5 0.5-9.5c 0.5,0.5 1,1 1.5,2zM 367.5,235c 3.5,0 7.5-3 8-6.5c 0.5-2 -1-4 -3-5.5c-3.5-4.5 -9-7 -15.5-7c-3.5,0 -6,0.5 -6.5,0.5c-1,0.5 -2,1 -2.5,2
c0,0.5 -1,2 -2,4.5c-1-1 -2-1.5 -3-2c-2-2 -4.5-3.5 -7.5-4.5c-5-2 -11-3 -17-3c-12.5,0 -26.5,3.5 -31,8c-1.5,1.5 -4,4 -3,7.5c 1,2 3.5,3.5 5.5,3.5c 1.5,0 4-1.5 8.5-3c 4.5-2 10.5-4 14.5-4.5c 2-0.5 4-0.5 6-0.5c 7,0 14.5,1.5 19,4c 1.5,1 2.5,3 3.5,5l0,3.5 c0,2 -0.5,4 -0.5,5.5c-2,1 -4,2 -5.5,3.5c-2,2 -5.5,3.5 -8.5,5
c-4.5,2.5 -8.5,5 -8.5,9c0,1 0,3.5 2.5,5.5c 5.5,4 20,4 21.5,4c 3,0 8.5,0 11.5-1.5c 7.5-3 11-4 11.5-8c 1-3.5 -1.5-6.5 -4.5-9.5c-2.5-2 -5-4.5 -8-6l0-2.5 c0-4.5 0.5-5.5 0.5-5.5c 3.5-5.5 6-8 7-8.5l 0.5,0.5c 0.5,4.5 4,6.5 6.5,6.5z" horiz-adv-x="409.5"  />
<glyph unicode="&#x3e;" d="M 220.5,402.5c 76.5,0 138-62 138-138c0-71.5 -55.5-131 -125.5-137c-16-47 -60.5-81.5 -113-81.5c-66,0 -120,53.5 -120,119.5c0,54 35.5,99 84,114.5c 7.5,68.5 66,122.5 136.5,122.5zM 39,324c-21.5,0 -39,17.5 -39,39s 17.5,39 39,39s 38.5-17.5 38.5-39s-17-39 -38.5-39zM 39,383.5
c-11.5,0 -20.5-9 -20.5-20.5s 9-20.5 20.5-20.5s 20.5,9 20.5,20.5s-9,20.5 -20.5,20.5zM 239,164.5c 47.5,8.5 83.5,50.5 83.5,100c0,56.5 -45.5,102 -102,102c-49,0 -90-35 -99-81.5c 65-0.5 117.5-54 117.5-119.5l0-1 zM 201.5,164.5l0,1 c0,45 -36,81.5 -81,82c 7-42 39.5-75.5 81-83zM 120,84c 32.5,0 59.5,18.5 73.5,45.5
c-55.5,11.5 -98.5,55 -108,110.5c-28-13 -47.5-41.5 -47.5-74.5c0-45.5 36.5-81.5 82-81.5z" horiz-adv-x="358"  />
<glyph unicode="&#x3f;" d="M 219,332.5l0,63.5 c0,11.5 -8.5,20 -19.5,20l-15,0 c-11,0 -19.5-8.5 -19.5-20l0-63.5 c0-11 8.5-20 19.5-20l 15,0 c 11,0 19.5,9 19.5,20zM 134.5,320.5l-45,44.5c-7.5,7.5 -20.5,7.5 -28,0l-10.5-10.5c-7.5-7.5 -7.5-20.5 0-28l 44.5-45c 7.5-7.5 21-7.5 28.5,0l 10.5,10.5c 7.5,7.5 7.5,21 0,28.5zM 288.5,281.5l 44.5,45c 7.5,7.5 7.5,20.5 0,28
l-10.5,10.5c-7.5,7.5 -20.5,7.5 -28,0l-45-44.5c-7.5-7.5 -7.5-21 0-28.5l 10.5-10.5c 7.5-7.5 21-7.5 28.5,0zM 20,197l 63.5,0 c 11,0 20,8.5 20,19.5l0,15.5 c0,11 -9,19 -20,19l-63.5,0 c-11.5,0 -20-8 -20-19l0-15.5 c0-11 8.5-19.5 20-19.5zM 300.5,197l 63.5,0 c 11.5,0 20,8.5 20,19.5l0,15.5 c0,11 -8.5,19 -20,19l-63.5,0 
c-11,0 -20-8 -20-19l0-15.5 c0-11 9-19.5 20-19.5zM 89.5,83.5l 45,44.5c 7.5,7.5 7.5,20.5 0,28l-10.5,11c-7.5,7.5 -21,7.5 -28.5,0l-44.5-45.5c-7.5-7.5 -7.5-20.5 0-28l 10.5-10c 7.5-7.5 20.5-7.5 28,0zM 333,121.5l-44.5,45.5c-7.5,7.5 -21,7.5 -28.5,0l-10.5-11c-7.5-7.5 -7.5-20.5 0-28l 45-44.5c 7.5-7.5 20.5-7.5 28,0
l 10.5,10c 7.5,7.5 7.5,20.5 0,28zM 219,52l0,63.5 c0,11 -8.5,20 -19.5,20l-15,0 c-11,0 -19.5-9 -19.5-20l0-63.5 c0-11.5 8.5-20 19.5-20l 15,0 c 11,0 19.5,8.5 19.5,20z" horiz-adv-x="384"  />
<glyph unicode="&#x40;" d="M 87.5,213l 140,140c 1.5,1.5 13.5,13.5 32.5,20c 26.5,8.5 53.5,1.5 75-20c 22-21.5 28.5-48 20-74.5c-6-19 -18.5-32 -20-33.5l-150.5-150.5c-26-26 -91-59.5 -151,0c-59.5,59.5 -25.5,125 0,150.5l 161.5,162c 6,6 15.5,6 21.5,0s 6-15.5 0-21.5l-161-162c-2.5-2 -53-54.5 0-107.5c 51.5-51.5 102-5.5 107.5,0
l 150.5,151s 8.5,8.5 12.5,20.5c 5,16 1.5,30 -12.5,44c-30,30 -59,5 -64.5,0l-140-139.5c-5-5 -8.5-13.5 0-22s 16.5-4.5 21.5,0l 97,97c 6,5.5 16,5.5 21.5,0c 6-6 6-16 0-22l-97-96.5c-13.5-13 -41-23.5 -64.5,0c-24,23.5 -13.5,51.5 0,64.5z" horiz-adv-x="358"  />
<glyph unicode="&#x41;" d="M 171.5,87.5l-86,0 c-47,0 -85.5,38.5 -85.5,85.5c0,35.5 21.5,65 51.5,78c0,2.5 -0.5,5 -0.5,7.5c0,28 23.5,51 51.5,51c 17,0 32-8.5 41.5-21c 15.5,42 56,72.5 103.5,72.5c 61,0 110-49.5 111-110c 30-13.5 51-43 51-78c0-47 -38.5-85.5 -85.5-85.5l-83.5,0 l0,50 l 40.5,0 c 6,0 8,4 3.5,8.5l-70.5,75.5
c-2,2 -5,3.5 -8,3.5s-6.5-1.5 -8.5-3.5l-70.5-75.5c-4-4.5 -3-8.5 3.5-8.5l 41,0 l0-50 z" horiz-adv-x="409.5"  />
<glyph unicode="&#x42;" d="M 79.5,225l 86-86.5l-41.5-40l-124,124l 127,127l 39.5-39zM 304.5,223l-86,86.5l 41.5,40l 124-124l-127-127l-39.5,39z" horiz-adv-x="384"  />
<glyph unicode="&#x43;" d="M 40,393l 278.5,0 c 22,0 40-18 40-40l0-169 c0-22 -18-40 -40-40l-53,0 l 2.5-68.5c0-16.5 -9-20.5 -21-9l-78.5,77.5l-128.5,0 c-22,0 -40,18 -40,40l0,169 c0,22 18,40 40,40z" horiz-adv-x="358"  />
<glyph unicode="&#x44;" d="M 113.5,144l-65-43.5s 13.5,36 14.5,62c-38.5,20.5 -63,54 -63,91.5c0,62.5 69.5,113.5 155,113.5c 71,0 131-35.5 149.5-83c-7,1 -14,1.5 -21,1.5l-7,0 c-35-1.5 -67.5-13 -92.5-32.5c-27.5-22 -42.5-53 -41.5-84c 0.5-9.5 2.5-20 6-29c-12,0 -23.5,1.5 -35,3.5zM 354,80.5l-42.5,23c-8.5-2 -18.5-3.5 -27.5-4l-6,0 
c-54.5,0 -98.5,31.5 -100,71.5c-2,41.5 43,77 100,79l 5.5,0 c 54.5,0 99-30.5 100.5-71c 1-24.5 -14-46.5 -38.5-61.5c 1-17.5 8.5-37 8.5-37z" horiz-adv-x="384"  />
<glyph unicode="&#x45;" d="M 179,403.5c 99,0 179.5-80.5 179.5-179.5s-80.5-179 -179.5-179s-179,80 -179,179s 80,179.5 179,179.5zM 179,86.5c 76,0 138,61.5 138,137.5s-62,138 -138,138s-137.5-62 -137.5-138s 61.5-137.5 137.5-137.5zM 208.5,195l-107-48.5l 48.5,107l 107,48.5zM 121,165.5l 77.5,39l-39,39z" horiz-adv-x="358"  />
<glyph unicode="&#x46;" d="M 179,403.5c 99,0 179.5-80.5 179.5-179.5s-80.5-179 -179.5-179s-179,80 -179,179s 80,179.5 179,179.5zM 179,63.5c 88.5,0 161,72 161,160.5s-72.5,161 -161,161s-160.5-72.5 -160.5-161s 72-160.5 160.5-160.5zM 231,304.5c-8,19.5 -27.5,34.5 -52.5,34.5c-20,0 -39.5-13.5 -46.5-26
c-39.5,18 -80.5-14 -80.5-51.5c0-26 15.5-43.5 37.5-54.5c-2.5-22.5 -6.5-48.5 -9-70.5c-1-7.5 -3-16.5 2-22.5c 12.5-3 26-1.5 40-1.5l 122,0 c 8.5,4 7,14.5 8,21.5c 2.5,22.5 6,47.5 9,69c 36.5-1 61.5,23 61.5,57c0,44.5 -50,73.5 -91.5,44.5zM 216.5,290c0-4.5 -3-5.5 -3-9c 4.5-3 10-7 16-9
c 5,15 22,28.5 42.5,25.5c 20-2.5 33-23 31.5-42.5c-1.5-16.5 -17-33 -41-33.5c 1.5,10 2,20.5 -7.5,21c-10,0 -11-15.5 -12.5-29c-2-14.5 -2.5-28.5 -4-37l-99,0 c-14,0 -28.5,2 -26.5-12c 1.5-8 14.5-6.5 26.5-6.5c 31,0 67.5,1 96.5-0.5c-1-9 -2-18.5 -3.5-26.5l-134,0 c 4,30 7.5,62 11.5,92c-22.5,1 -42,18 -39.5,43.5
c 4,34.5 53,44 70.5,16c 1,19 15,35.5 32.5,37.5c 20.5,2.5 38-10.5 43-30z" horiz-adv-x="358"  />
<glyph unicode="&#x47;" d="M 286,386.5l 52.5-54.5c 5-5.5 9.5-17 9.5-24.5l0-161.5 c0-7.5 -6-14.5 -14-14.5l-93.5,0 l0,24.5 l 78.5,0 c 2.5,0 4.5,2 4.5,4.5l0,136 c0,2.5 -2,4.5 -4.5,4.5l-58,0 c-2.5,0 -5,2 -5,4.5l0,62 c0,2.5 -2,4.5 -4.5,4.5l-95,0 c-2.5,0 -5-2 -5-4.5l0-34.5 c-5,2 -11.5,3 -16.5,3l-7.5,0 l0,46.5 c0,8 6.5,14 14,14l 121,0 c 7.5,0 18.5-4.5 23.5-10zM 285,325.5l 21,0 
c 2.5,0 3,1.5 1.5,3.5l-24,24.5c-1.5,2 -3,1.5 -3-1l0-22.5 c0-2.5 2-4.5 4.5-4.5zM 159,306.5l 52-55c 5.5-5.5 9.5-16.5 9.5-24l0-161.5 c0-8 -6-14.5 -13.5-14.5l-192.5,0 c-8,0 -14.5,6.5 -14.5,14.5l0,236.5 c0,7.5 6.5,14.5 14.5,14.5l 120.5,0 c 7.5,0 18.5-5 24-10.5zM 29,76l 162.5,0 c 2.5,0 5,2 5,4.5l0,136 c0,2.5 -2.5,4.5 -5,4.5l-58,0 c-2.5,0 -4.5,2 -4.5,4.5
l0,62 c0,2.5 -2,4.5 -4.5,4.5l-95.5,0 c-2.5,0 -4.5-2 -4.5-4.5l0-207 c0-2.5 2-4.5 4.5-4.5zM 180,248.5l-23.5,25.5c-2,2 -3.5,0.5 -3.5-2l0-22 c0-2.5 2.5-4.5 5-4.5l 20.5,0 c 2.5,0 3.5,1.5 1.5,3z" horiz-adv-x="348"  />
<glyph unicode="&#x48;" d="M 295.5,140.5l 63,0 l0-32.5 l-63,0 l0-63 l-33,0 l0,63 l-199.5,0 l0,199.5 l-63,0 l0,33 l 63,0 l0,63 l 32.5,0 l0-63 l 187,0 l 37,36.5l 17.5-17.5l-41.5-41.5l0-177.5 zM 95.5,153.5l 154.5,154l-154.5,0 l0-154 zM 262.5,285l-144-144.5l 144,0 l0,144.5 z" horiz-adv-x="358"  />
<glyph unicode="&#x49;" d="M 192,305c-22,0 -40,18 -40,40c0,22.5 18,40 40,40s 40-17.5 40-40c0-22 -18-40 -40-40zM 32.5,321.5c 17.5,0 31.5-14.5 31.5-32c0-18 -14-32 -31.5-32c-18,0 -32.5,14 -32.5,32c0,17.5 14.5,32 32.5,32zM 352.5,321.5c 17.5,0 31.5-14.5 31.5-32c0-18 -14-32 -31.5-32c-18,0 -32.5,14 -32.5,32
c0,17.5 14.5,32 32.5,32zM 67.5,100.5l-26.5,145c 8,1.5 15.5,6 21.5,11c 16.5-15 37.5-29.5 57.5-29.5c 24,0 43.5,37 57,68c 4.5-1.5 10-3 15-3s 10.5,1.5 15,3c 13.5-31 33-68 57-68c 20,0 41,14.5 57.5,29.5c 6-5 13.5-9.5 21.5-11l-26.5-145l-249,0 zM 62,88l 260,0 l0-24.5 l-260,0 l0,24.5 z" horiz-adv-x="384"  />
<glyph unicode="&#x4a;" d="M 92,199.5l-2,0 c-21,0 -43.5-10 -60.5-26.5c-17.5-16 -29.5-37.5 -29.5-59c0-24.5 17.5-39.5 41.5-39.5c 20.5,0 43.5,10.5 61,26.5c 17,16.5 29,37.5 29,59c0,2.5 0,6 -0.5,8.5l 16,14l 157-80.5c 2.5-1 5-2 7.5-2c 3.5,0 10,2 17,3c 6.5,1.5 13.5,3 17.5,3.5c 7,1 12.5,7.5 12.5,14.5c0,5 -2.5,9.5 -7,12.5l-130.5,90.5l 130.5,90.5
c 4.5,3 7,7.5 7,12.5c0,7 -5.5,14 -12.5,15c-2,0 -4.5,0.5 -7.5,1.5c-6,1.5 -14,2.5 -20,3.5s-10.5,1 -14.5-1c-1-0.5 -4-2 -9.5-4.5c-5-2.5 -11.5-6 -19-10s-16-8 -25-13c-9-4.5 -19.5-9.5 -28.5-14.5c-19-9.5 -37.5-19 -51.5-26c-7-3.5 -13-7 -17.5-9c-4-2 -6-3.5 -6-3.5l-16,14.5c 0.5,2.5 0.5,5.5 0.5,8
c0,21.5 -12,43 -29,59c-17.5,16 -40.5,26.5 -61,26.5c-24,0 -41.5-15 -41.5-39.5c0-21 12-42.5 30-59c 18-17 41-28 62-26.5c 2-3 6.5-7 11-11s 8.5-8.5 11.5-11.5l0-4 c-3-3 -6.5-6.5 -11.5-11c-4.5-4 -8.5-8.5 -11-11.5zM 37,334l0,1.5 c 1.5,0.5 3,0.5 4.5,0.5c 12,0 25-7.5 33.5-14.5c 4-3.5 9-9.5 12.5-15.5
c 4-6 7.5-13 7.5-18.5l0-1 c-2.5-0.5 -4-0.5 -5-0.5c-12,0 -24,7.5 -33,15c-3.5,3.5 -9,8.5 -13,14.5s-7,13 -7,18.5zM 109.5,196l 20.5,20l-1,24l 182.5,93l 32-6l-190-131l-8.5,4.5l-20-18c-3.5,5.5 -9,10 -15.5,13.5zM 116,246l-6.5,7c 6.5,2.5 12,7 15.5,12.5l 8-7c-7.5-3.5 -14-5.5 -17-12.5zM 139,224
c0-8 6.5-14.5 14.5-14.5c 8.5,0 15,6.5 15,14.5c0,8.5 -6.5,15 -14.5,15c-9,0 -15-6.5 -15-15zM 169,188.5l 38.5,26.5l 136-94l-32-6zM 37.5,114c0,11 7.5,23.5 18.5,32.5s 24,16 34,16c 1.5,0 3-0.5 4-0.5l0-1 c 0.5,0 0.5-0.5 0.5-1c0-11 -7.5-23 -18.5-32s-23.5-16 -34.5-16l-2,0 c-0.5,0.5 -1,0.5 -2,0.5l0,1.5 z" horiz-adv-x="358"  />
<glyph unicode="&#x4b;" d="M 52.5,74.5l 253,0 c 4.5,0 9,2 11.5,5.5c 13.5,15 23.5,34 30.5,53.5c 7,20 11,41 11,61c0,49 -20,93.5 -52.5,126.5c-33,33 -77.5,52.5 -127,52.5s-94-19.5 -127-52.5c-32.5-33 -52-77 -52-126.5c0-20 4-41 11-61c 7-19.5 16.5-38.5 30.5-53.5c 2.5-3.5 6-5.5 11-5.5zM 156.5,321c0,13 10,22.5 22.5,22.5
s 22.5-9.5 22.5-22.5c0-12.5 -10-22 -22.5-22s-22.5,9.5 -22.5,22zM 67,284c0,12.5 10,22 22.5,22s 22.5-9.5 22.5-22s-10-22.5 -22.5-22.5s-22.5,10 -22.5,22.5zM 246.5,284c0,12.5 10,22 22.5,22c 13,0 22.5-9.5 22.5-22s-9.5-22 -22.5-22c-12.5,0 -22.5,9.5 -22.5,22zM 177.5,171.5l 26,93c 1.5,4.5 5.5,8 11,8s 11-5 11-10.5
c0-1 -1-3.5 -2-8c-1.5-5 -2.5-11 -4.5-17c-1.5-6.5 -3.5-14 -5.5-21c-4.5-15.5 -9-30 -11.5-40c-1.5-5 -2.5-9.5 -3-11c 10-7 17.5-18 17.5-30.5c0-21 -16.5-37.5 -37.5-37.5s-37,16.5 -37,37.5c0,9.5 3.5,19 10,25.5s 16,11 25.5,11.5zM 30,194.5c0,12.5 9.5,22 22,22s 23-9.5 23-22s-10.5-22.5 -23-22.5
s-22,10 -22,22.5zM 283.5,194.5c0,12.5 10,22 22.5,22s 22-9.5 22-22s-9.5-22.5 -22-22.5s-22.5,10 -22.5,22.5z" horiz-adv-x="358"  />
<glyph unicode="&#x4c;" d="M 151.5,236.5l-151.5,0 l0,151.5 l 151.5,0 l0-151.5 zM 327.5,236.5l-151.5,0 l0,151.5 l 151.5,0 l0-151.5 zM 136,372.5l-120.5,0 l0-121 l 120.5,0 l0,121 zM 151.5,60.5l-151.5,0 l0,151.5 l 151.5,0 l0-151.5 zM 176,60.5l0,151.5 l 151.5,0 l0-151.5 l-151.5,0 zM 199.5,196.5l-8,0 l0-8 zM 220,196.5l-28.5-28.5l0-20.5 l 49,49l-20.5,0 zM 261,196.5l-69.5-69.5l0-20.5 l 90,90l-20.5,0 zM 191.5,75.5l 9.5,0 l 111.5,111l0,10 l-10.5,0 
l-110.5-110.5l0-10.5 zM 242,75.5l 70.5,70.5l0,20 l-91-90.5l 20.5,0 zM 283,75.5l 29.5,29.5l0,20.5 l-50-50l 20.5,0 zM 303.5,75.5l 9,0 l0,9 z" horiz-adv-x="332.5"  />
<glyph unicode="&#x4d;" d="M 178,219l 123,123l 57.5-59.5l-177.5-177l-181,181l 56,56.5z" horiz-adv-x="358"  />
<glyph unicode="&#x4e;" d="M 179,403.5c 99,0 179.5-80.5 179.5-179.5s-80.5-179 -179.5-179s-179,80 -179,179s 80,179.5 179,179.5zM 179,377c-12.5,0 -24-1.5 -35.5-4.5c 2-2.5 30.5-41 56.5-89c 58,21.5 80,55 80,55.5c-26.5,24 -62,38 -101,38zM 113.5,362.5c-42.5-20 -74.5-59.5 -84-106.5c 3.5-0.5 68-1 141,18.5
c-26,47 -55,85.5 -57,88zM 297.5,321.5c-0.5-0.5 -25-36 -85.5-60.5c 3.5-7.5 7-15 10-22.5c 1-2.5 3-5 4-7.5c 52,6.5 104-5 106.5-5.5c-0.5,36.5 -13.5,70 -35,96zM 26,224c0-39.5 15-75.5 39.5-102.5c0,0 41.5,75 124.5,101.5c 2,0.5 4,1 5.5,1.5c-3.5,8.5 -7.5,17.5 -12,26c-79-23.5 -154.5-22 -157.5-22l0-4.5 z
M 264.5,97l 0.5,0.5c 34.5,23 58.5,60 65,102.5c-3,1 -46,14 -95,6.5c 20-55.5 28-100.5 29.5-109.5zM 238.5,83.5l 0.5,0 c-2.5,13.5 -11,60 -32.5,116c-0.5,0 -0.5-0.5 -1-0.5c-87-30 -118-90.5 -120-95l 3-3.5c 25.5-18.5 56.5-29.5 90.5-29.5c 21,0 41.5,4.5 59.5,12.5z" horiz-adv-x="358"  />
<glyph unicode="&#x4f;" d="M 301,297.5l-126.5-158.5c-12-14.5 -30.5-14.5 -42,0l-126.5,158.5c-12,15 -6,26.5 12.5,26.5l 270,0 c 19,0 24.5-11.5 12.5-26.5z" horiz-adv-x="307"  />
<glyph unicode="&#x50;" d="M 279,120.5l0,64.5 l 40,40l0-117.5 c0-23.5 -19.5-43 -42.5-43l-234,0 c-23.5,0 -42.5,19.5 -42.5,43l0,233.5 c0,23.5 19,43 42.5,43l 237.5,0 l0-0.5 l-40-39.5l-184,0 c-8.5,0 -16-7.5 -16-16.5l0-207 c0-9 7.5-16 16-16l 207,0 c 8.5,0 16,7 16,16zM 317,364.5l 42.5-42.5l 19.5,19.5l-42.5,42.5zM 167.5,214.5l 42-42.5l 135.5,135.5l-42,42.5zM 137.5,142.5
l 58,15.5l-42.5,42.5z" horiz-adv-x="378.5"  />
<glyph unicode="&#x51;" d="M 6.5,207.5l 137,171.5c 13,15.5 33,15.5 45.5,0l 137-171.5c 13-16 7-28.5 -13.5-28.5l-292.5,0 c-20,0 -26.5,12.5 -13.5,28.5zM 25,53.5l 282.5,0 c 14,0 25.5,11 25.5,25.5l0,33.5 c0,14 -11.5,25 -25.5,25l-282.5,0 c-14,0 -25-11 -25-25l0-33.5 c0-14.5 11-25.5 25-25.5z" horiz-adv-x="332.5"  />
<glyph unicode="&#x52;" d="M 88,224c0,24 -20,44 -44,44c-24.5,0 -44-20 -44-44s 19.5-44 44-44c 24,0 44,20 44,44zM 223,224c0,24 -20,44 -44,44s-44-20 -44-44s 20-44 44-44s 44,20 44,44zM 358.5,224c0,24 -19.5,44 -44,44c-24,0 -44-20 -44-44s 20-44 44-44c 24.5,0 44,20 44,44z" horiz-adv-x="358"  />
<glyph unicode="&#x53;" d="M 32.5,326l 34.5,0 c 7.5,0 14,6.5 14,14c0,0 -0.5,7 -0.5,15.5l0,22 c0,6.5 1.5,12 4.5,16c 4,6 11.5,10 18.5,12c 8,2.5 41,4.5 62.5-4c 8-3 15.5-13.5 17-23.5c 12.5,0.5 32.5,0.5 50-1.5c 22-2.5 39-5.5 47.5-8.5c 8-2.5 17-10 19.5-24.5c 4.5-25 10.5-125 7.5-158.5c-5-52 -12.5-83.5 -16-93.5c-16.5-51.5 -31-53.5 -71.5-53.5
c-51,0 -67,8 -67,49.5c0,45.5 21.5,46.5 58,45.5c 5-0.5 -0.5-5.5 -0.5-14.5c0-8.5 3.5-12 -1.5-12c-10,0 -24.5,1.5 -24.5-13c0-17.5 8.5-17 30.5-17c 27.5,0 33,4 33,29c0,41 -11.5,47 -28,49c-17.5,2 -35,4.5 -43.5,7.5c-21,7.5 -19.5,36 -19.5,43.5c0,1.5 -2,1 -2,0c0-11.5 -0.5-26.5 -6.5-44.5c-1.5-5 -3-8 -3-8
c-6.5-14.5 -18-9 -36-7c-18,2.5 -55.5,10 -72.5,17c-7,3.5 -10,7 -14,15c-9.5,20.5 -20,87.5 -21.5,97c-1.5,12.5 -1.5,18 -1.5,18c0,8 1,15.5 5.5,22c 2,3 5.5,6 10,8c 4,1.5 10,3 17,3zM 65.5,336l-35,0 c-8,0 -15.5-1.5 -21.5-4c0-0.5 -2-1.5 -3.5-2l 0.5,0.5l 67,66.5l 0.5,0 l-1-2c-2.5-4.5 -4-11 -4-17.5
c0-8.5 0.5-37.5 0.5-37.5c0-2 -1.5-4 -3.5-4zM 230,233c 9,0 18-2.5 24.5-5.5c0,10 -2,26.5 -18.5,27c-15,0.5 -19.5-12 -20.5-22c 4.5,0.5 9.5,1 14.5,0.5z" horiz-adv-x="308.5"  />
<glyph unicode="&#x54;" d="M 348,152.5l 40.5,0 c 12,0 14-7 5.5-15l-59-59.5c-5-5.5 -14.5-5.5 -20,0l-59.5,59.5c-8,8 -6,15 6,15l 40.5,0 l0,147 c-2,20.5 -19,36 -40,36c-21.5,0 -39-16.5 -40-37.5l0-148 c-1.5-31 -20-58.5 -46-72.5c-12-6 -25-9 -39.5-9s-27,3 -39,9c-26.5,14 -45.5,41.5 -46.5,73l0,145 l-40,0 
c-12,0 -14.5,6.5 -6,14.5l 59,59.5c 5.5,5.5 15,5.5 20,0l 59.5-59.5c 8.5-8 6-14.5 -6-14.5l-40,0 l0-145.5 c 1-21 17.5-38 39-38s 39.5,18 39.5,39.5l0,146.5 c 1.5,31.5 19.5,58 46,72c 12,6 25.5,9.5 40,9.5s 27.5-3.5 40-9.5c 25.5-13.5 43.5-39.5 46-70l0-147.5 z" horiz-adv-x="399"  />
<glyph unicode="&#x55;" d="M 250.5,344l-167-168l 35-35.5l 167.5,167.5l 31-30.5c 8.5-8.5 16-6 16,7l0,90.5 c0,8 -7,15.5 -15.5,15.5l-90.5,0 c-13,0 -16-7.5 -7.5-16zM 269,111.5l0,113.5 l 38,0 l0-126.5 c0-22.5 -18.5-41 -41-41l-225,0 c-22.5,0 -41,18.5 -41,41l0,225.5 c0,22.5 18.5,41 41,40.5l 138.5,0 l0-38 l-125.5,0 c-8,0 -15.5-7.5 -15.5-15.5l0-199.5 
c0-8 7.5-15.5 15.5-15.5l 199.5,0 c 8,0 15.5,7.5 15.5,15.5z" horiz-adv-x="332.5"  />
<glyph unicode="&#x56;" d="M 19,390.5l 295,0 c 10,0 19-9 19-19l0-295 c0-10 -9-19 -19-19l-295,0 c-10,0 -19,9 -19,19l0,295 c0,10 9,19 19,19zM 236.5,203.5l 46,0 l 2,44l-48,0 l0,30.5 l0,2 c0,12.5 2.5,19.5 18.5,19.5l 28,0 l 1,41s-12.5,2 -30.5,2c-44,0 -63.5-27.5 -63.5-57l0-38 l-32.5,0 l0-44 l 32.5,0 l0-122 l 46.5,0 l0,122 z" horiz-adv-x="332.5"  />
<glyph unicode="&#x57;" d="M 215,389.5l 70.5-74c 7-7.5 13-21.5 13-32.5l0-219 c0-10 -8-19 -19-19l-260.5,0 c-10,0 -19,9 -19,19l0,320.5 c0,10 9,19 19,19l 164,0 c 11,0 25-6.5 32-14zM 39.5,78l 219.5,0 c 3.5,0 6.5,3 6.5,6.5l0,183 c0,3.5 -3,6.5 -6.5,6.5l-78.5,0 c-3.5,0 -6.5,3 -6.5,6.5l0,83.5 c0,3.5 -2.5,6 -6,6l-128.5,0 c-3.5,0 -6-2.5 -6-6
l0-279.5 c0-3.5 2.5-6.5 6-6.5zM 243.5,311.5l-31.5,34c-2.5,2.5 -4.5,1.5 -4.5-2l0-30.5 c0-3 3-6 6-6l 28,0 c 3.5,0 4.5,2 2,4.5zM 78,340.5l 62,0 c 6.5,0 12.5-6 12.5-13l0-7.5 c0-6.5 -6-12.5 -12.5-12.5l-62,0 c-7,0 -13,6 -13,12.5l0,7.5 c0,7 6,13 13,13zM 78,273.5l 62,0 c 6.5,0 12.5-6 12.5-13l0-7.5 c0-6.5 -6-12.5 -12.5-12.5
l-62,0 c-7,0 -13,6 -13,12.5l0,7.5 c0,7 6,13 13,13zM 219.5,173.5l-141.5,0 c-7,0 -13,5.5 -13,12.5l0,7.5 c0,7 6,12.5 13,12.5l 141.5,0 c 6.5,0 13-5.5 13-12.5l0-7.5 c0-7 -6.5-12.5 -13-12.5zM 219.5,105l-141.5,0 c-7,0 -13,5.5 -13,12l0,8 c0,7 6,12.5 13,12.5l 141.5,0 c 6.5,0 13-5.5 13-12.5l0-8 c0-6.5 -6.5-12 -13-12z
" horiz-adv-x="298"  />
<glyph unicode="&#x58;" d="M 222,39l-0.5,0 c-0.5-0.5 -0.5-1 -1-1c-1.5-3 -5-5 -8.5-5c-8.5,0.5 -18.5,1 -27.5,2.5c-1,0 -2.5,0.5 -3.5,0.5c-1.5-1.5 -4-2.5 -6.5-2.5l-1.5,0 c-11.5,2 -24,6 -36,11c-9.5,4 -18.5,8 -26.5,13c-28.5,15 -53.5,37 -72,64c-13.5,18.5 -23,40 -28.5,62c-4.5,0.5 -8,4.5 -8,8.5c-0.5,6.5 -1,13.5 -1,20c0,9.5 0.5,19.5 1.5,28
c-2,2 -3,5 -2.5,8c 2,17.5 7.5,35 14.5,51c 2.5,6.5 5.5,12.5 9,18c-0.5,4 -0.5,7.5 -0.5,11.5c0,21 7,41 21,57c 1.5,2 4,3 7,3l 3,0 c 3.5-1 6-4 6.5-7.5c 1-7 3.5-14 7.5-19.5c 33.5,33.5 79.5,53.5 130,53.5c 30,0 58.5-7 83.5-20c 21.5-8 41-20.5 57-37c 0.5,1 1,2.5 2,3c 1.5,2 4,3 6.5,3c 2,0 4.5-0.5 6-1.5
c 11-8 20-20 26-34.5c 6.5-14.5 10.5-30.5 11.5-48c0-2 0.5-4 0.5-6.5c 3-1 6-4 6.5-7.5c 1.5-7.5 2-16 2-23.5c0-25 -5.5-49 -17-71c-1-3 -2-6.5 -3-9c 2-2 3.5-4.5 3.5-7.5l0-1.5 c-3-24 -24-50.5 -53-68.5c-3-2 -6-4 -9-5.5c 0.5-3 -0.5-6 -2.5-8c-15.5-17 -44.5-28.5 -78.5-32
c-6-0.5 -12.5-0.5 -18-0.5zM 287,163.5l-10.5-14c-2-1.5 -4.5-2.5 -6.5-3.5c-0.5,0 -1,0 -1.5,0.5c-1.5,1.5 -1,5 0.5,8.5c-2-1.5 -5-3.5 -7.5-5.5c-5-4 -9-8.5 -12-12.5c-1.5-0.5 -3.5-1 -5-1c 1.5,1.5 3,3 4,5c-9-4.5 -21.5-7.5 -33.5-7.5l-2,0 c-3,0.5 -6,0.5 -8.5,1c-9.5,1.5 -19.5,4.5 -28,9c0,0 -0.5,0 -1,0.5c 2.5,0.5 5,0.5 7.5,0.5
s 4.5,0 6.5-0.5c-4.5,2 -10.5,4 -16.5,4l-2,0 l-0.5,0 c-0.5,0 -0.5,0 -1-0.5c-23.5,14 -41.5,36 -44,59.5c-1.5,13.5 0,25 6,36.5c-3.5,0.5 -7,1 -11,1c-6,0 -12.5-1 -18-2.5c-2.5-0.5 -4-1 -5.5-1.5c-0.5,1.5 -2,3 -2.5,4.5c 8,3 17.5,4.5 26,4.5c 5,0 10-0.5 14.5-1c 0.5-0.5 1.5-0.5 2-0.5l 0.5-0.5l 2.5,0 c0-0.5 0-0.5 0.5-0.5s 1,0 1.5-0.5l 0.5,0 c 0.5,0 1-0.5 1.5-0.5
l 0.5,0 c 0.5-0.5 1-0.5 1.5-0.5c0-0.5 0.5-0.5 0.5-0.5c 0.5,0 1-0.5 1.5-0.5c0,0 0.5,0 0.5-0.5c 0.5,0 1,0 1.5-0.5l 0.5,0 c 1-0.5 1.5-0.5 2-1c 1.5,3.5 2,7.5 2,11.5l0,1.5 c0,4 -1,8 -2.5,11.5c-1,2 -2.5,4.5 -3.5,6.5c-6,9.5 -9,21 -9,34c0,23.5 11.5,45 30,58c-2.5,0 -5,0.5 -7,0.5c-18.5,0 -34.5-8.5 -44.5-22.5c-6,1.5 -17,2.5 -22.5,2.5
c-24,0 -45.5-11 -60-29c-5-6.5 -9.5-14 -12.5-21.5c-6.5-15 -12-31.5 -14-49c 2,6 5,12 8,17c-4-14 -6-31.5 -6-51.5c0-6 0-13 0.5-19c 0.5,8 2,16 3,22.5c 5.5-65.5 44.5-121.5 101-149.5c 7-4.5 16.5-9 25.5-13c 12-4.5 23.5-8 33.5-9.5c-5,2 -10.5,4.5 -15.5,7c 2.5-0.5 5.5-1 8.5-1.5
c 5.5-1.5 12-3 18.5-4c 9-1.5 18-2 26-2c-2.5,1 -5.5,2 -8.5,3.5c 6,0.5 12,1 17.5,1.5l 1,0 c 5.5,0 11.5,0.5 17,1c 32.5,3 59.5,14.5 73,29c-7-3.5 -16-6.5 -25-8.5c 8,4.5 17,10 24,15.5c 4.5,2.5 9.5,5 14,8c 27.5,17 46,41 49,62c-4-7 -10.5-14.5 -19-21c 7.5,13 14.5,26.5 19,41c 10,20.5 15.5,43.5 15.5,67.5
c0,7.5 -0.5,15 -1.5,22l0-3 c0-11 -2-20.5 -5.5-29c-0.5,7.5 -1,16 -2,23c 1,7.5 1.5,16 1,24c-2,33.5 -15.5,60.5 -34.5,75c 9.5-10 16-25.5 16-43c0-1.5 0-2.5 -0.5-4c-19,42.5 -58,75 -105,84.5c 26.5-13.5 49-35 63.5-61c-9.5,9 -21.5,17 -35.5,20.5c 23-21 38-50.5 39-84.5c0-4 0-8.5 -0.5-12.5
c-3.5,9 -10,17 -16.5,23.5c 2-11 4-22 4-34.5c 0.5-17.5 -1.5-34 -5-49.5c-1.5,7.5 -3.5,15 -6,21c0-2 0-4 -0.5-5.5c-1-18 -6-34 -13-46zM 51,379c-12-14 -18.5-31 -18.5-50.5l0-1 l 2,2s 0.5,0.5 0.5,1c 1,0.5 1.5,1 2,1.5l 0.5,0.5s 1,1 2,1.5l0,0.5 c 1,0.5 1.5,1 2.5,2c 1,0.5 1.5,1.5 2.5,2l0,0.5 c 2.5,1.5 5.5,3.5 8,5c 4,2 8.5,4 13,6
c-1.5,1 -2.5,2.5 -4,4c0,0.5 0,0.5 -0.5,1c0,0 0,0.5 -0.5,0.5c0,0.5 -0.5,0.5 -0.5,1l-0.5,0.5c0,0.5 -0.5,1 -0.5,1c0,0.5 -0.5,1 -0.5,1.5l-0.5,0.5c0,0.5 -0.5,0.5 -0.5,1s-0.5,1 -0.5,1c0,0.5 -0.5,1 -0.5,1c0,0.5 -0.5,0.5 -0.5,1s0,0.5 -0.5,1l0,0.5 c-0.5,0.5 -0.5,1 -0.5,1c-0.5,0.5 -0.5,0.5 -0.5,1s-0.5,0.5 -0.5,1l0,0.5 c-0.5,0.5 -1,1.5 -1,2c0,0 -0.5,0 -0.5,0.5l0,1 c-0.5,0.5 -0.5,0.5 -0.5,1l0,1 l-0.5,0.5l0,1.5 
c0,0 0,0.5 -0.5,0.5l0,2 zM 195,307c-0.5,7.5 -23.5,5.5 -32.5,5.5c-4.5,0 -9.5,2.5 -13,5c-0.5-3 -1-7 -1-10c0-10 2.5-20.5 7.5-29c 1.5-2 2.5-4 3.5-6c 8,5.5 20,11.5 24,14.5c 6.5,5 12,12 11.5,20zM 213,211.5c-23.5,0 -23.5-10.5 -45-10.5c-11,0 -25.5,5.5 -34,19c0-3.5 0-8 0.5-12c 2-16 13-32.5 29-45
c 10,0.5 21,3 26.5,5c 15,5 26.5,16.5 35,19.5c 3.5,1.5 10.5-2.5 14,4.5c 3,5.5 -10,19.5 -26,19.5z" horiz-adv-x="399"  />
<glyph unicode="&#x59;" d="M 54,54l0,282.5 c 11.5,7 17.5,18 17.5,31c0,19.5 -16,36 -35.5,36c-20,0 -36-16.5 -36-36c0-13 7-24 18.5-31l0-282.5 c0-5 3.5-9 8-9l 18.5,0 c 5,0 9,4 9,9zM 71.5,320.5l0-162 c0-9.5 5-13.5 11-9c 11.5,8.5 21.5,15 30.5,19.5c 18.5,8.5 31.5,12.5 43.5,13c 15,0 26.5-3 38-8.5c 11-5 21-13 32.5-20.5
c 6.5-4 14.5-6.5 23.5-7c 15-1 36,2.5 60.5,22.5c 5.5,4.5 10,16 10,24.5l0,162 c0,9.5 -4,13 -10,8.5c-12.5-9.5 -24-16 -34-19c-20.5-5.5 -36.5-4.5 -50,3.5c-11.5,7.5 -21.5,15.5 -32.5,20.5c-11.5,5.5 -23,8.5 -38,8.5c-5.5,0 -12.5-1.5 -20-3.5c-13.5-4 -31-12.5 -54-28.5c-6-4.5 -11-15.5 -11-24.5z" horiz-adv-x="321"  />
<glyph unicode="&#x5a;" d="M 42,390.5l 249,0 c 23.5,0 42-18.5 42-42l0-249 c0-12.5 -5-22 -12.5-29.5c-7-7 -18-12.5 -29.5-12.5l-249,0 c-23.5,0 -42,18.5 -42,42l0,249 c0,11.5 5.5,22.5 12.5,29.5c 7.5,7.5 17,12.5 29.5,12.5zM 97.5,169c 31,0 56.5,25 56.5,56s-25.5,56.5 -56.5,56.5c-30.5,0 -56.5-25.5 -56.5-56.5s 26-56 56.5-56zM 235.5,169
c 30.5,0 56.5,25 56.5,56s-26,56.5 -56.5,56.5c-31,0 -57-25.5 -57-56.5s 26-56 57-56z" horiz-adv-x="332.5"  />
<glyph unicode="&#x5b;" d="M 190,324.5l 152.5,0 c 8.5,0 16-7.5 16-16l0-211.5 c0-8.5 -7.5-15.5 -16-15.5l-326.5,0 c-8.5,0 -16,7 -16,15.5l0,211.5 c0,8.5 7.5,16 16,16l 17,0 l 8,26.5c0,8.5 7.5,16 16,16l 109,0 c 8.5,0 16-7.5 16-16z" horiz-adv-x="358"  />
<glyph unicode="&#x5c;" d="M 178,128.5l 78,77.5c 5.5,5.5 6,14.5 1.5,21l 75.5,63.5l0-233 l-333,0 l0,333 l 277,0 l-77-106l-22,22c-6,6 -16.5,6 -22.5,0l-4.5-4.5c-12.5,20 -35,33 -60,33c-39,0 -70-31 -70-70c0-38 30-68.5 67.5-70l 67-66.5c 6-6.5 16.5-6.5 22.5,0zM 163,172.5l-43,34c 12,6 22,16 28.5,28
c 7.5-10 13-17 13.5-17.5c 0.5-1 2-2 3.5-2s 3,0.5 4.5,2.5l 126,173l 37,0 l0-80 l-164.5-138.5c-1-0.5 -2-1 -2.5-1c-2,0 -3,1.5 -3,1.5zM 91,320c 30,0 55-24.5 55-55c0-30 -25-54.5 -55-54.5s-54.5,24.5 -54.5,54.5c0,30.5 24.5,55 54.5,55z" horiz-adv-x="332.5"  />
<glyph unicode="&#x5d;" d="M 247,378.5l0-62 c-265,0 -246.5-247 -246.5-247c 52,172.5 246.5,122.5 246.5,122.5l0-63.5 l 137,127z" horiz-adv-x="384"  />
<glyph unicode="&#x5e;" d="M 276,152c 20.5-11.5 32-30.5 30-50c-1-12 -0.5-12 -16-14c-9.5-1 -70-1.5 -131.5-1.5c-70,0 -143,0.5 -148.5,2c-20.5,5.5 -8.5,43.5 18.5,61.5c 21.5,13.5 65,34.5 77,37c 16.5,3.5 18.5,14 0,45.5c-4,7.5 -8.5,29 -9,52c-0.5,37 6,62 38.5,74.5c 6,2 13,3 19.5,3c 21.5,0 41.5-12 50-29.5
c 11.5-23.5 6-85 -6-107.5c-14.5-25.5 -13-33.5 3-37.5c 10-2.5 43-18 74.5-35.5zM 385.5,183.5c 16-8.5 25-24 23.5-39c-0.5-9 -0.5-9.5 -12.5-11c-6-1 -37.5-1.5 -74.5-1.5c-6.5,15.5 -19,29.5 -36,38.5c-19.5,11 -42.5,22.5 -60,30c 11.5,5.5 21.5,10 26,11c 12.5,3 14,10 0,35c-3.5,6 -7.5,23 -8,41
c-0.5,29 6,49 31,58.5c 5,1.5 10.5,2.5 15.5,2.5c 16.5,0 32-9 38.5-23c 8.5-18.5 4.5-66.5 -4.5-84.5c-11-20 -10-26 2.5-29c 8-2 33.5-14.5 58.5-28.5z" horiz-adv-x="409"  />
<glyph unicode="&#x5f;" d="M 179,398.5c 99,0 179.5-77.5 179.5-174.5s-80.5-174.5 -179.5-174.5s-179,77.5 -179,174.5s 80,174.5 179,174.5zM 60,243l 4-10.5c 1.5-3.5 5.5-6 9.5-4.5l 87.5,31.5c 3.5,1.5 4.5,4 5,10.5c 1,6.5 0,9.5 -3.5,11.5l-80,46c-3.5,2 -8.5,1 -10.5-2.5l-5.5-10c-2-3.5 -1-8 2.5-10l 54-31l-58.5-21c-3.5-1.5 -5.5-6 -4.5-10z
M 294.5,232.5l 4,10.5c 1,4 -1,8.5 -4.5,10l-58.5,21l 54,31c 3.5,2 4.5,6.5 2.5,10l-6,10c-2,3.5 -6.5,4.5 -10,2.5l-80-46c-3.5-2 -4.5-5 -3.5-11.5c 0.5-6.5 1.5-9 5-10.5l 87-31.5c 4-1.5 8.5,1 10,4.5zM 265,120c 10,3.5 15.5,16 12,26c-16,40.5 -54.5,66.5 -98,66.5s-81.5-26 -97.5-66.5c-3.5-10 1.5-22.5 11.5-26
c 10-4 162.5-4 172,0z" horiz-adv-x="358"  />
<glyph unicode="&#x60;" d="M 169,261.5l 35-34.5c 2-2 4-3 7-3c 2.5,0 4.5,1 6.5,3l 59.5,59l 36-36c 11.5-11 20-6.5 20,9l0,113 c0,9.5 -8,18.5 -19,18.5l-113,0 c-16,0 -20-8.5 -8.5-20l 36-36l-59.5-59c-1.5-2 -2.5-4.5 -2.5-7c0-3 1-5 2.5-7zM0,189.5l0-113.5 c0-9.5 8-18.5 19-18.5l 112.5,0 c 16,0 20.5,8.5 9,20l-36,36l 59.5,59.5
c 1.5,2 2.5,4 2.5,7c0,2.5 -1,4.5 -2.5,6.5l-35,35c-2,1.5 -4,2.5 -7,2.5c-2.5,0 -5-1 -7-2.5l-59-59.5l-36,36c-11.5,11 -20,7 -20-8.5z" horiz-adv-x="332.5"  />
<glyph unicode="&#x61;" d="M 71.5,349.5l0,36 l 36,0 l0-36 l-36,0 zM 251,385.5l 35.5,0 l0-36 l-35.5,0 l0,36 zM 322.5,278l0,71.5 l 36,0 l0-143.5 l-36,0 l0-35.5 l-36,0 l0-36 l 36,0 l0-36 l 36,0 l0-35.5 l-72,0 l0,35.5 l-35.5,0 l0,36 l-143.5,0 l0-36 l-36,0 l0-35.5 l-71.5,0 l0,35.5 l 36,0 l0,36 l 35.5,0 l0,36 l-35.5,0 l0,35.5 l-36,0 l0,143.5 l 36,0 l0-71.5 l 35.5,0 l0,35.5 l 36,0 l0,36 l 36,0 l0-36 l 71.5,0 l0,36 l 36,0 l0-36 l 35.5,0 l0-35.5 l 36,0 zM 143.5,242l0,36 l-36,0 l0-36 l 36,0 zM 251,242l0,36 
l-36,0 l0-36 l 36,0 z" horiz-adv-x="358"  />
<glyph unicode="&#x62;" d="M 324.5,332l-34-34.5c 9-14 15.5-30 18.5-47l 49.5,0 l0-53 l-49.5,0 c-3-17 -9.5-32.5 -18.5-46.5l 34-35l-37.5-37.5l-34.5,34.5c-14-9 -29.5-16 -46.5-19l0-49 l-53.5,0 l0,49 c-17,3 -32.5,10 -46.5,19l-35-34.5l-37,37.5l 34,35c-9,14 -16,29.5 -19,46.5l-49,0 l0,53 l 49,0 c 3,17 10,33 19,47l-34,34.5l 37,37.5l 35-34.5
c 14,9 29.5,16 46.5,19l0,49.5 l 53.5,0 l0-49.5 c 17-3 32.5-10 46.5-19l 34.5,34.5zM 179,150c 41,0 74.5,33 74.5,74s-33.5,74.5 -74.5,74.5s-73.5-33.5 -73.5-74.5s 32.5-74 73.5-74z" horiz-adv-x="358"  />
<glyph unicode="&#x63;" d="M 179,403.5c 99,0 179.5-80.5 179.5-179.5s-80.5-179 -179.5-179s-179,80 -179,179s 80,179.5 179,179.5zM 191.5,148l0-57.5 c 64.5,5.5 116,57.5 121.5,121.5l-57,0 l0,23.5 l 57,0 c-5,65 -57,116.5 -121.5,122l0-57.5 l-23.5,0 l0,57.5 c-65-5 -117.5-57 -122.5-122l 58,0 l0-23.5 l-58,0 c 5.5-64.5 57.5-116.5 122.5-122l0,58 l 23.5,0 z
" horiz-adv-x="358"  />
<glyph unicode="&#x64;" d="M 377,152.5l-1-4c-1.5-4 -3.5-8 -5-12c0-1 -1-3 -1.5-4c-16-35.5 -46-52.5 -92.5-61c-2.5-0.5 -7-1.5 -11.5-2c-45-5.5 -79-6.5 -124-2.5c-1.5,0 -3.5,0.5 -4.5,0.5c-62.5,7 -99.5,29.5 -119,65.5c-0.5,0.5 -1.5,2 -2,4c-2,3.5 -3.5,8 -5,11.5c-1,2 -1.5,3 -2,4.5c-6.5,18.5 -9,40 -9,64
c0,42 13,58.5 30.5,81c-13.5,48 5.5,81 5.5,81s 28.5,6 82.5-32.5c 29,12.5 106.5,13.5 143.5,2.5c 22.5,15 64,36 81,30c 4-7 13.5-28 5.5-74.5c 5.5-10 35.5-32 35.5-93.5c-0.5-22.5 -3-42 -7-58.5zM 49.5,167c0-55.5 39-80 93.5-84.5c 3.5-0.5 7-0.5 11-1c 25.5-0.5 57.5-1 89,0c 7,0.5 14,1 20.5,2
c 52,7.5 73.5,37.5 73.5,79.5c0,30.5 -14,70.5 -70,70.5c-4,0 -37-4 -68.5-4c-35.5,0 -72,4 -77.5,4c-57.5,0 -71.5-45.5 -71.5-66.5zM 115.5,192.5c 11,0 19.5-13 19.5-29s-8.5-29 -19.5-29s-19,13 -19,29s 8,29 19,29zM 277,134.5c-11.5,0 -20,13 -20,29s 8.5,29 20,29c 11,0 19.5-13 19.5-29
s-8.5-29 -19.5-29zM 194,120.5c-5,0 -9,4.5 -9,9.5c0,4.5 4,8.5 9,8.5s 9.5-4 9.5-8.5c0-5 -4.5-9.5 -9.5-9.5zM 194.5,90.5c-14.5,0 -26,12.5 -26,20c0,3 2,5.5 5,5.5s 5-2.5 5-5.5c 0.5-1.5 7-10 16-10c 7,0 13.5,6 13.5,10c0,3 2.5,5.5 5,5.5c 3,0 5.5-2.5 5.5-5.5c0-9 -10-20 -24-20z" horiz-adv-x="384"  />
<glyph unicode="&#x65;" d="M 305,350.5c 33-33 53.5-78 53.5-126.5c0-49 -20.5-93 -53.5-126s-77.5-53 -126-53c-49,0 -93,20 -126,53s-53,77 -53,126c0,48.5 20,93.5 53,126.5s 77,53 126,53c 48.5,0 93-20 126-53zM 199.5,123l 1,0 c 1.5,0 3-0.5 4-2c 1-1 2-2 4-2c 0.5,0 1,0.5 1,1.5c0,2 0.5,4 0.5,4.5
c 0.5,1.5 1.5,1.5 2.5,1.5c 0.5,0 0.5,0 0.5,1l-1,1c-0.5,0 -1-0.5 -1-1c-0.5-0.5 -1-1 -1.5,0l-3-2l-3.5,1l-6,9l 2,13c0,0.5 -0.5,1.5 -2,2s-1.5,1.5 -1,2c-2,1 -4.5,2 -7.5,2c-0.5,0 -2-0.5 -4.5-1c-2.5,0 -4,0 -4,1c0,1.5 1.5,4.5 2.5,8c 0.5,1.5 1,4 1.5,5c0,1 0.5,2 0.5,2l 2.5,6l-0.5,1l-3.5,0.5c-1,0 -4.5-2 -7-4c-2.5-3 -4.5-5.5 -4.5-7.5
l-10-2c-2,0 -4,0.5 -5.5,2.5c-0.5,2.5 -2,5.5 -4,8.5c-2,2.5 -2.5,5 -2.5,7.5c0,3 0.5,7 1.5,9.5c 1,3 1,6.5 -1,9.5c 0.5,0 2,1 1,2l 2.5,3l 0.5,0.5l 0.5-0.5c 2,1.5 5.5,2 8.5,1.5c 3.5-0.5 5.5,1 6.5,3.5l 3.5-3.5c 1-0.5 3,3 3,4l-1.5,1l 9,2l 0.5-1l 4,0 l 5-3c 0.5,0 1,0.5 1.5,1c 1,1 1.5,1 2,0.5l 4.5-5c-0.5-1 -0.5-2 -0.5-3c 0.5-0.5 1-1 1-1.5
c0-2 4.5-11 7-11c 1.5,0 2,1 1.5,3l0,4 c0,2.5 -0.5,5.5 -1.5,8.5c-1.5,2.5 -2.5,6 -3.5,9l0,1 c0,1.5 1,3 3,4c 1.5,1 2.5,2 2.5,2c 1.5,1 3,2.5 5,3.5c 1.5,1 3,3.5 4,5l 1.5,3.5l0,2 l 1.5,0 s 1,0.5 1,1.5c0,0 -0.5,0.5 -1,0.5c-0.5,0.5 -2,1.5 -3,2.5l 1,1c 1.5,1.5 2,5 1,6.5l 4,2c-1-2 2-2.5 3-2l 2,4.5c-1,2.5 -1.5,0 0,3c 1.5,0.5 3,1 4.5,2c 1.5,0.5 2.5,1 4,1
c 0.5,0 1-0.5 1-0.5c 1,0 1.5,0.5 1.5,0.5c0,1.5 -0.5,2.5 -1,2.5l 2.5,5.5c 2,0 4,1 5,3l 4,0.5c 1,0 1.5,0.5 1.5,1.5l0,1 l 7.5,2l 1,2.5l-2,3s 0.5,0.5 0.5,1s-0.5,1 -1,1.5c-0.5,0 -1,0.5 -1.5,0.5c-0.5,0.5 -1,1 -1.5,1l 1,0 l 3,0 s 2,0.5 2,2c0,2 -1,2.5 -3,2.5c-5.5,0 -14-2 -17-8l-3-1.5l 4,4l 0.5,1c0,0.5 -0.5,1 -1.5,1.5l-1.5,0 c 5,0 8,1.5 10,3c 1.5,1.5 3,3 6.5,4
c 3.5-0.5 7-0.5 10.5-0.5c 3,0.5 6,0.5 9.5,0.5c 1.5,1 3.5,3 4.5,5l 5,0.5c 1-1 4.5,1.5 4.5,3s-0.5,2 -2,2.5s-3,1.5 -3,3l0,1.5 c 0.5,0.5 0,1 -0.5,1c-2,0 -7-2.5 -8.5-3.5c-1-1 -1.5,0.5 -1.5,1.5l 0.5-0.5l 2,1l 5,2l 0.5,0.5c0,2 -3,2.5 -4,2.5c-0.5,0 -1.5-0.5 -2.5-1c-1,0 -2,0 -2,1l 0.5,1c-3.5,2.5 -6.5,7.5 -6.5,9l0,2 c 0.5,0.5 0,0.5 -1,0.5l-1.5,0 c-0.5-0.5 -1,0 -1,1
s-2,6.5 -4.5,6.5l-1.5-1.5c0-1 -0.5-1.5 -1.5-2s-1.5-1 -1.5-1.5l-0.5,0 l-5-3c0,1 -0.5,1 -1,0.5c-0.5,0 -0.5-0.5 -1.5-0.5l-1,0 c 2.5,0 2,3.5 0,3.5l-4-0.5c-1,0 -1,0 0,1c 0.5,1 1.5,2 0.5,3c0,1 -0.5,1 -1,0.5l 1,1.5c 1,0.5 -0.5,2.5 -1.5,3.5l-4.5,0.5l-3,3c-0.5-0.5 -1,0 -2,0.5c-0.5,0.5 -1.5,1.5 -2,1.5l-3.5-1.5l-9,2c-1,0 -2.5-0.5 -2.5-2c0-0.5 0-1 0.5-1
c 1-0.5 1-1 1-1.5s 0.5-2.5 1-5c0-2.5 0-3.5 -1.5-3l-2-3c0-1 1-1.5 1.5-1.5c 1.5-1 3-2.5 4-4c 1-1 1-2.5 0.5-4l-9.5-7.5l0-0.5 c0-1.5 0-2.5 0.5-3.5c 1-1 1-2.5 2-4c 2.5-1 2.5-2 0.5-3c-1,0 -2-0.5 -3-1l-1-1c0-0.5 -0.5-0.5 -1-0.5l-1.5,0 l-1,0 s0,0.5 0.5,0.5c0,0 0.5,0.5 0.5,1l-4.5,2.5l-2,3.5c 0.5,1.5 0.5,2.5 0,3s-0.5,1.5 -0.5,2.5
c0,2 -1,3.5 -3,3.5c-2.5,0 -4.5-0.5 -7-1c 1,0.5 -1,3 -1.5,3c-2.5,0 -5.5,1 -9,3s-6,3 -8,3c-1.5,0 -4.5-0.5 -6.5-1.5c 1,0.5 1,1 1.5,2.5l-3,5l-0.5,0.5c-1,0 -2-0.5 -3-1.5c-1-0.5 -2.5,0 -2.5,2c0,0.5 0.5,1 0.5,1c 0.5,0.5 0.5,0.5 0,1c0,1.5 0.5,3 2,4.5c 1,1 1.5,3 2,4.5c 1,0.5 1,1 1,1.5c0,1 0.5,1 1,1c 1,0 2.5,0.5 3.5,1c 1,1 2,1.5 3.5,1.5l 0.5,1.5
c0,0.5 -1.5,1 -4.5,1.5c-3.5,0.5 -5,0.5 -5,1.5l 0.5,0.5c 3-1 5.5-1.5 7-1.5c 3-0.5 4.5,0.5 7.5,2c 1,0.5 4,1.5 6.5,3c0,0.5 -0.5,0.5 -2,1l 2,0 l 3.5,2l0,2 l-1,1l 5,1c-0.5,1 0.5,1.5 1,1.5c 1,0 2-0.5 3-1.5s 1.5-1 2-1l 4.5,1.5c0,0.5 0.5,0.5 1.5,0.5c 1,0.5 1.5,1 1,1.5l-3.5,3.5c-1,0 -1.5,1.5 -0.5,1.5c 1.5,0 2.5,0.5 1.5,2c-1,0.5 -2.5,1.5 -4,2c-1.5,1 -3,1.5 -4.5,1.5
c-1,0 -3-0.5 -3-2c0-1 0.5-1 1-1c 1,0 1.5-0.5 1.5-1c 1-0.5 0.5-1 -0.5-1l-1,0 c-1,0 -2.5-1 -3.5-3c-1-1.5 -2.5-3 -4-3.5c-0.5,0 -0.5,0 -0.5,0.5c 0.5,0.5 0,0.5 0,1c-0.5,0.5 -1,1 -1.5,1c-1,0.5 -2,0.5 -2,1c0,1 1,1.5 2,3c 0.5,1.5 -1,2 -3.5,2c-1,0 -2-0.5 -2.5-1.5c-0.5-0.5 -1-1.5 -1.5-2.5l-5,5.5l-4,0.5c0,1 0.5,2 1,3
c 1,2 -3,4.5 -4.5,6c-0.5,0 -1.5,0.5 -2.5,0.5c-0.5,0 -3.5-2.5 -5.5-3.5c-1-0.5 -1.5-1 -1.5-1.5c0-1 1-1 2.5-1l-0.5,0 c-1,0 -1.5-0.5 -1.5-2c0-0.5 4-1.5 5-1.5s 2,0 2-0.5c 0.5-0.5 0.5-0.5 1.5-0.5l 1.5,0.5l0-1 s-0.5-1 -0.5-1l 0.5-1.5l-5-2.5l-0.5-0.5c-0.5,0 -1,0 -1-0.5s0-1.5 1-2.5c 0.5-1 0-1.5 -2.5-1.5l-1.5,1c0,1 -1,2 -3.5,3
c-4.5,1.5 -12.5,2 -19.5,2c-3.5,0.5 -6,0.5 -8,0.5l-7.5-2.5l 2-4c-0.5,0 -1.5-0.5 -1.5-0.5c-2,1.5 -5,4.5 -6,4.5l-3.5,0.5c-11-0.5 -24-11 -36.5-23.5s-23.5-26.5 -29-35l 1,0 c 1,0 1.5,0.5 3,1c 1,0.5 1.5-0.5 1.5-2c0-1 0-1.5 -0.5-2.5s 0.5-1.5 2.5-1.5c 0.5,0 1,0.5 1,1.5c 0.5,1 0.5,1 0.5,0l 1-3.5l0-0.5 c0-0.5 -0.5-1 -1-1.5c-1.5-0.5 0-2 1.5-2l 2.5,0 l 1,0.5l 0.5,0.5
c0-2 2-2.5 3.5-2.5l 0.5,0 s-0.5-1 -1-1.5c-1,0 -1-0.5 0-1l 5-1l0-0.5 l 3-6.5c0-1 -1-3.5 -2-3.5s-1,0.5 -1,1c 0.5,0 0.5,0.5 0.5,1.5c0,0.5 -0.5,1 -0.5,1.5c-0.5,0.5 -1.5,0.5 -3.5,0.5c-0.5,0 -2,0 -1-1.5l 2.5-5.5l 1-1c-3,0 -3.5-10 -3.5-13l 0.5-4l 0.5-1.5l0-0.5 l-0.5-4.5l 6-10l 1.5,0 c0-0.5 0-1 -0.5-1.5s-0.5-1 -0.5-2l 2-1.5c0-3 1-3.5 3.5-6
c0-1.5 2-3.5 5-5.5c 3.5-1.5 5.5-2.5 6.5-3c 2-7 5.5-14.5 10.5-19l 0.5-3l-1-1c-1,0 -1-0.5 -0.5-1l 4-2c 1,1 1.5,0 2.5-1.5c 1-2 1.5-3 2-3.5l0-1.5 l 2.5-3.5l 1-1l 1,2.5c-1,2.5 -4.5,8 -7.5,12.5c-1.5,2.5 -3,5 -4.5,7c-1,1.5 -1.5,2.5 -1.5,3s-0.5,6 -1,7c 0.5-0.5 2-1 3-1.5c 1.5-0.5 3-1 4-1.5c 0.5-4 2-7 4.5-9.5
c 2-2 4-4.5 5.5-7.5c-1-1 1-1 2-1c 0.5-1 0.5-1.5 0.5-3.5c 4.5-4.5 13.5-15 13.5-19.5l0-0.5 l-1-3c 2-4.5 6.5-8 11-9.5l 1,0 c 2.5-1.5 6-3 9.5-4.5c 3-2 6-3.5 9-4.5l 5,3c 2.5-0.5 5.5-3 9-6s 8-6.5 14-7.5c 2,1.5 3,1 3-1l0-1 l 5.5-6.5l 1-3c 3-2 6.5-5 8-8.5zM 135,374.5l-0.5,1c-1,0.5 -3.5,1.5 -4.5,1.5
c-0.5,0 -1.5-0.5 -3.5-1c-3.5-2 -9-3.5 -13-5.5c-2-1 -3.5-1.5 -4.5-1.5c 2,0 4,0.5 6,1.5c 1.5,1 3.5,1.5 5.5,1.5l 1.5-1c 1-0.5 1.5-0.5 2.5-0.5c 0.5,0 1,0 2-1c 1,0.5 2,0.5 3.5-0.5l 1.5,1l0,2 l-0.5,1l 1-0.5c 1,0 2,0.5 3,2zM 210.5,81.5l 0.5-3c0-1 -0.5-1 -1-2c-1.5-1 -4-2.5 -4-5.5c0-0.5 0.5-1 0.5-2c 0.5-0.5 1-1 1-2c0-0.5 -0.5-1 -0.5-1.5
c 34.5,6 65.5,22.5 89.5,48l-0.5,0 c-1-0.5 -2.5-0.5 -3,0l-1.5-0.5l-2.5,0.5l-1.5,0 c-1,1.5 -2,2.5 -3.5,3.5l-0.5,0.5c-0.5,0 -1,0 -1-1c0,4.5 -3.5,8.5 -7.5,8.5c0-0.5 -0.5-0.5 -0.5-0.5l-1,0 l-1,0.5l 1.5,0 l 1,3l-2.5,1.5l-0.5-0.5c-2,0.5 -3.5,1.5 -4.5,3.5l-1.5,0.5l0-0.5 l-1-0.5c-2-0.5 -3.5-1 -4.5-1.5c-2,0.5 -3.5,1.5 -4,2l-6-0.5c0,2 -1,4.5 -3.5,4.5c-3,0 -7,0 -8-3.5
c0-1 0.5-2.5 1-3l0-2 l-0.5-1l-0.5-0.5l-0.5,0 l-1.5,3.5l 1.5,2c-0.5,1 -0.5,1.5 -0.5,2.5s-0.5,1.5 -0.5,2.5l-0.5,0.5l-1.5,0 l-3-2l-2,0 l-0.5-1c-0.5,0 -0.5-0.5 -0.5-1c0,0 -0.5,0 -0.5-0.5l-0.5,0.5l-2,0 c-1-1 -1.5-2.5 -2-4l 1-1l-2.5-1l-0.5-1l-1.5-1l0-0.5 l-0.5,0 l0-2.5 l-0.5,0 c-0.5,2 -2,4 -5,5.5l-1.5,0 l0-1 c0-1 1-1.5 2-2c 1-1 1.5-2 2-2.5c-0.5,0.5 -1.5,0 -1.5-0.5
l0-1 l 3-4.5l0-8.5 l 1-2c-1-2.5 -2-5 -3.5-6.5l0,0.5 l-1-0.5l-0.5-0.5l-0.5-2l 0.5-0.5l0-0.5 l-1,1l-0.5-3l-2.5-1c-1-0.5 -1.5-1 -1-2.5c0-1 -0.5-1.5 -1.5-2l 0.5-1l-1-1.5c0-0.5 0-1 -0.5-1l0-2 l 0.5-3.5l 1-0.5l 1,0.5z" horiz-adv-x="358"  />
<glyph unicode="&#x66;" d="M 252.5,111.5l0-18.5 l 54.5,0 l0-35 l-185.5,0 s-29.5,22.5 -29.5,22.5l0,159.5 s 41,30.5 59,68c 18,38 17,82 17,82l 47,0 s 2-36 0-64.5c-2.5-29 -12-64.5 -12-64.5l 130,0 l0-41 l-80.5,0 l0-18.5 l 80.5,0 l0-36.5 l-80.5,0 l0-18 l 65,0 l0-35.5 l-65,0 zM0,83l 71,0 l0,154 l-71,0 l0-154 z" horiz-adv-x="332.5"  />
<glyph unicode="&#x67;" d="M 41,388l 245.5,0 c 22.5,0 41-18.5 41-41l0-41 l-51,0 l0,51 l-25.5,0 l0-51 l-51.5,0 l0-25.5 l 51.5,0 l0-51.5 l 25.5,0 l0,51.5 l 51,0 l0-179.5 c0-22.5 -18.5-40.5 -41-40.5l-98,0 c 0.5,3 0.5,6 0.5,9c0,34 -7,51 -43,77.5c-10,7.5 -33,23 -33,34c0,12.5 3.5,18.5 22.5,33.5s 33,35 33,59.5c0,26.5 -11.5,50 -32,62l 29.5,0 l 25,26.5l-111,0 
c-31.5,0 -61-13.5 -80-33.5l0,18 c0,22.5 18.5,41 41,41zM 124,271.5c 5-39 -12.5-64.5 -42-63.5c-30,1 -58.5,28.5 -63.5,68s 15,69 44.5,68.5c 30-1 56-33.5 61-73zM0,126l0,88.5 c 14.5-14.5 35-23 60.5-23c 3.5,0 7,0 10.5,0.5c-3.5-6.5 -6-14.5 -6-22c0-13 7.5-20.5 16.5-29l-20.5,0 
c-23,0 -44-6 -61-15zM 154.5,60.5l-113.5,0 c-19.5,0 -36,13 -40,31.5c 13.5,21 42,36.5 75,36c 10,0 20-2.5 28.5-5c 24-17 44-27 48.5-46.5c 1-3.5 1.5-7.5 1.5-11.5l0-4.5 z" horiz-adv-x="327.5"  />
<glyph unicode="&#x68;" d="M0,73.5l 358.5,0 l0,28 l-330.5,0 l0,273 l-28,0 l0-301 zM 49,128.5l 308,0 l0,221 l-65-59.5l-60.5,22l-64-73l-65.5,23.5l-53-55l0-79 z" horiz-adv-x="358"  />
<glyph unicode="&#x69;" d="M 334.5,148c 21-11.5 33-32 31.5-52.5c-1-12.5 -1.5-13 -17.5-15c-10-1.5 -73-2 -138-2c-73.5,0 -150.5,1.5 -156,3c-22,5.5 -10,45.5 19,64.5c 22.5,14.5 68.5,36.5 81,39c 17,3.5 19,14 0,48c-4.5,7.5 -9.5,30.5 -10,54.5c-0.5,39 7,65.5 41,78.5c 7,2.5 14,3.5 20.5,3.5c 22.5,0 43.5-12.5 52-31
c 12.5-24.5 7.5-90 -5.5-113.5c-15-26.5 -13.5-35 3-39.5c 11-3 45-19 79-37.5zM 62.5,163c-8-5.5 -15.5-12.5 -21.5-19.5c-19,0 -33.5,0.5 -35,1c-12.5,3 -5.5,26 11,36c 12.5,8 38,20.5 45,22c 9,2 11,7.5 0,26.5c-2.5,4 -5.5,17 -5.5,30.5c-0.5,22 4,37 23,43.5c 16,6 34-1.5 40.5-15c 6.5-14 3-50 -4-63
c-8-15.5 -6.5-19.5 2.5-22c 2-0.5 6-2.5 11.5-5c-22-9 -52-25.5 -67.5-35zM 391.5,182c 12-6.5 18.5-17.5 17.5-29c-0.5-7 -0.5-7.5 -9.5-8.5c-2.5-0.5 -14-1 -29-1c-6.5,8.5 -15.5,16.5 -26.5,22c-20.5,12 -45.5,25 -64,33c 5,2 9.5,3.5 11.5,4c 9.5,2 11,7.5 0,26.5c-2,4 -5.5,17 -5.5,30.5c-0.5,22 3.5,37 22.5,43.5
c 16.5,6 34.5-1.5 40.5-15c 6.5-14 4-50 -3-63c-8-15.5 -7-19.5 1.5-22c 6-2 25-11 44-21z" horiz-adv-x="409"  />
<glyph unicode="&#x6a;" d="M 198.5,374.5c-8.5-3 -45.5-16.5 -47-17c-1,0.5 -38,14 -46.5,17c 8.5,3 45.5,16 46.5,16.5c 1.5-0.5 38.5-13.5 47-16.5zM 304.5,374.5c-8.5-3 -45.5-16.5 -46.5-17c-1.5,0.5 -38.5,14 -47,17c 8.5,3 45.5,16 47,16.5c 1-0.5 38-13.5 46.5-16.5zM 147.5,334c-8.5-3 -46-15.5 -47-16c-1,0.5 -38,13 -46.5,16c 8.5,3 45.5,16 46.5,16.5
c 1-0.5 38.5-13.5 47-16.5zM 205,318c-1,0.5 -38.5,13 -47,16c 8.5,3 46,16 47,16.5c 1.5-0.5 38.5-13.5 47-16.5c-8.5-3 -45.5-15.5 -47-16zM 309,318c-1,0.5 -38.5,13 -47,16c 8.5,3 46,16 47,16.5c 1-0.5 38.5-13.5 47-16.5c-8.5-3 -46-15.5 -47-16zM 205,347l-24-8s-7-3 -13-5c 6.5-2.5 35.5-12 37-13
c 2,1 30,10.5 37,13c-7.5,2.5 -35,12.5 -37,13zM 46.5,310c 1.5,0 38.5-13.5 47-16.5c-8.5-3 -45.5-15.5 -47-16c-1,0.5 -38,13 -46.5,16c 8.5,3 45.5,16.5 46.5,16.5zM 152,310c 1.5,0 38.5-13.5 47-16.5c-8.5-3 -45.5-15.5 -47-16c-1,0.5 -38,13 -46.5,16c 8.5,3 45.5,16.5 46.5,16.5zM 258.5,310c 1,0 38.5-13.5 47-16.5
c-8.5-3 -46-15.5 -47-16c-1,0.5 -38,13 -46.5,16c 8.5,3 45.5,16.5 46.5,16.5zM 363,310c 1,0 38-13.5 46.5-16.5c-8.5-3 -45.5-15.5 -46.5-16c-1.5,0.5 -38.5,13 -47,16c 8.5,3 45.5,16.5 47,16.5zM 9.5,293.5c0,0 35-12 37-12.5c 2,0.5 26,8.5 37.5,12.5c-11.5,4 -35.5,12.5 -37.5,13.5c-2-1 -36.5-13.5 -36.5-13.5l-0.5,0 zM 115,293.5
c 11.5-4 35.5-12 37-12.5c 2,0.5 26,8.5 37.5,12.5c-11.5,4 -35.5,12.5 -37.5,13.5c-1.5-1 -25.5-9.5 -37-13.5zM 325.5,293.5c 11.5-4 35.5-12 37.5-12.5c 2,0.5 36,12 37,12.5c-1,0.5 -35,12.5 -37,13.5c-2-1 -26-9.5 -37.5-13.5zM 51.5,252.5c 8.5,3 46,15.5 47.5,16c 1-0.5 38-13 46.5-16c-8.5-3 -45.5-16 -46.5-16.5c-1.5,0.5 -39,13.5 -47.5,16.5z
M 250.5,252.5c-8.5-3 -46-16 -47-16.5c-1,0.5 -38.5,13.5 -47,16.5c 8.5,3 46,15.5 47,16c 1-0.5 38.5-13 47-16zM 264,252.5c 8.5,3 46,15.5 47,16c 1.5-0.5 38.5-13 47-16c-8.5-3 -45.5-16 -47-16.5c-1,0.5 -38.5,13.5 -47,16.5zM 99,239.5c 1.5,0.5 25,9 36.5,13c-11.5,4 -35,12 -36.5,12.5c-2-0.5 -25.5-8.5 -37-12.5
c 11.5-4 35-12.5 37-13zM 203.5,265c-1.5-0.5 -25.5-8.5 -37-12.5c 11.5-4 35.5-12.5 37-13c 1.5,0.5 25,9 36.5,13c-11.5,4 -35,12 -36.5,12.5zM 311,239.5c 1.5,0.5 25,9 36.5,13c-11.5,4 -35,12 -36.5,12.5c-1.5-0.5 -25.5-8.5 -37-12.5c 11.5-4 35.5-12.5 37-13zM 158,199c 8.5,3 46,16.5 47,16.5s 38-13.5 46.5-16.5
c-8.5-3 -45.5-16 -46.5-16.5c-1,0.5 -38.5,13.5 -47,16.5zM 183.5,144l-16,0 l0-23.5 l-9,0 l0-13 l 9,0 l0-50.5 l 16,0 l0,50.5 l 9,0 l0,13 l-9,0 l0,23.5 zM 20.5,143l-17,0 l0-86 l 17,0 l0,38 l 35.5,0 l0-38 l 16,0 l0,86 l-16,0 l0-32 l-35.5,0 l0,32 zM 289.5,121l-15.5,0 l0-64 l 15.5,0 l0,25.5 c0,6 0.5,10.5 0.5,12c 1,4 2.5,7 5,9.5c 2,2 4.5,3 7.5,3c 2.5,0 4.5-1 6-2s 3-3.5 4-6
c 0.5-2.5 1-7 1-14.5l0-27.5 l 15,0 l0,41 c0,7 -1.5,13 -5,16.5c-4.5,4 -10,6.5 -16,6.5c-3,0 -6-1 -8.5-2c-3-1 -6-3 -9.5-6l0,8 zM 132.5,114.5l0,6 l 16,0 l0-63.5 l-16,0 l0,7 c-5-4 -12-7 -19-7c-17.5,0 -31.5,14.5 -31.5,32c0,18 14,31.5 31.5,31.5c 7,0 14-2 19-6zM 247,76.5l 13.5,0 c-2.5-6.5 -8-13 -12.5-15
s-10-4.5 -16-4.5c-9,0 -17,3.5 -23,9.5c-6,5.5 -9,13.5 -9,22.5s 3,16.5 9,22.5s 13.5,9 22.5,9s 17-3 23-9c 6-5.5 8.5-14 8.5-24l0-2.5 l-48.5,0 c 0.5-4.5 2.5-8 5.5-10.5s 7.5-4 12-4c 5.5,0 11,2 15,6zM 389.5,114.5l0,6 l 16.5,0 l0-63.5 l-16.5,0 l0,7 c-5-4 -12-7 -19-7c-17.5,0 -31.5,14.5 -31.5,32c0,18 14,31.5 31.5,31.5
c 7,0 14-2 19-6zM 215,96.5l 33.5,0 c-1,3 -3.5,6.5 -6.5,8.5c-2.5,2 -6,3 -10,3s-8-1 -11.5-3.5c-2-1.5 -3.5-4.5 -5.5-8zM 113.5,71.5c 9.5,0 17.5,8 17.5,17.5s-8,18 -17.5,18s-17-8.5 -17-18s 7.5-17.5 17-17.5zM 370.5,71.5c 9.5,0 17.5,8 17.5,17.5s-8,18 -17.5,18s-17-8.5 -17-18s 7.5-17.5 17-17.5z" horiz-adv-x="409.5"  />
<glyph unicode="&#x6b;" d="M 291,382.5c 83,0 110.5-96 81.5-148.5c-44.5-81.5 -180.5-168 -180.5-168s-136.5,86.5 -180.5,168c-29,52.5 -2,148.5 81.5,148.5c 77,0 96.5-66.5 99-76.5c 2.5,10 22,76.5 99,76.5z" horiz-adv-x="384"  />
<glyph unicode="&#x6c;" d="M 192,63.5c 2.5,0 5.5,0.5 7.5,2c 5.5,3.5 129.5,82.5 172,160c 18,33 16,77.5 -4.5,112c-18,30.5 -48,47.5 -84,47.5c-49.5,0 -76.5-26.5 -91-49c-14.5,22.5 -42,49 -91,49c-36.5,0 -66-17 -84.5-47.5c-20.5-34.5 -22-79 -4-112c 42-77.5 166.5-156.5 171.5-160c 2.5-1.5 5-2 8-2zM 101,355
c 59,0 74-49 76-58.5c 2-6.5 8-12 15-12c 6.5,0 13,5.5 14.5,12c 2.5,9.5 17.5,58.5 76.5,58.5c 32.5,0 50-17.5 58.5-33c 15-24.5 16.5-59 4-82c-33.5-60 -126-125 -153.5-144c-28,19 -120.5,84 -153.5,144c-12.5,23 -11,57.5 4,82c 8.5,15.5 26,33 58.5,33z" horiz-adv-x="384"  />
<glyph unicode="&#x6d;" d="M 179,403.5c 99,0 179.5-80.5 179.5-179.5s-80.5-179 -179.5-179s-179,80 -179,179s 80,179.5 179,179.5zM 165.5,168.5l 12,0 c 1.5,30.5 8.5,40.5 37,57.5c 17.5,11 23,14.5 29.5,21.5c 9,9.5 13.5,21.5 13.5,35.5c0,35.5 -28.5,57 -75,57c-16,0 -28.5-3 -41-7.5c-25-9.5 -40.5-29.5 -40.5-51.5c0-11 7.5-16.5 23-16.5
c 13,0 20,5.5 19.5,14.5l0,12 c0,7.5 3,20.5 7,27c 5,8 15.5,13.5 27.5,13.5c 22.5,0 37-18 37-44.5c0-10 -1.5-19.5 -5.5-28.5c-3.5-7 -7.5-12.5 -19.5-25.5c-19-20 -24.5-34.5 -24.5-57l0-7.5 zM 172,96c 14.5,0 26,11.5 26,26s-11,26 -26,26c-14.5,0 -25.5-11.5 -25.5-26s 11-26 25.5-26z" horiz-adv-x="358"  />
<glyph unicode="&#x6e;" d="M 165,339l-143.5,0 l0-89.5 c-7.5-2 -15.5-5.5 -21.5-10.5l0,130.5 c0,18.5 15.5,34 34,34l 118.5,0 c 18.5,0 34-15.5 34-34l0-119 l-21.5,0 l0,88.5 zM 235.5,297l 34.5,0 c-1.5,14 -7.5,27 -17.5,37c-13.5,13.5 -31,19 -48,17.5l0,25.5 c 23.5,1.5 48-6.5 66-25c 15.5-15.5 23.5-34.5 25-55l 33.5,0 l-46-50zM 34,231.5l 276,0 c 18.5,0 33.5-15.5 33.5-34l0-119 
c0-18.5 -15-33.5 -33.5-33.5l-276,0 c-18.5,0 -34,15 -34,33.5l0,119 c0,18.5 15.5,34 34,34zM 67,67l 212,0 l0,143 l-212,0 l0-143 zM 39,119.5c 10,0 19,8.5 19,18.5s-9,18.5 -19,18.5s-18.5-8.5 -18.5-18.5s 8.5-18.5 18.5-18.5z" horiz-adv-x="343.5"  />
<glyph unicode="&#x6f;" d="M 311.5,278.5l 58-53c 7-6.5 5-11.5 -4.5-11.5l-43.5,0 l0-138.5 c0-9.5 -8-18 -17.5-18l-75.5,0 l0,97 c0,9.5 -8.5,18 -18,18l-47.5,0 c-9.5,0 -18-8.5 -18-18l0-97 l-75.5,0 c-9.5,0 -18,8.5 -18,18l0,138.5 l-43,0 c-9.5,0 -11.5,5 -4.5,11.5l 169.5,154c 7,6.5 19,6.5 26.5,0l 38.5-34.5l0,27.5 c0,9.5 8.5,18 18,18l 37.5,0 
c 9.5,0 17.5-8.5 17.5-18l0-94 z" horiz-adv-x="373.5"  />
<glyph unicode="&#x70;" d="M 315,222c0,62.5 -32.5,95 -95,95c 62.5,0 95,32 95,94.5c0-62.5 32-94.5 94.5-94.5c-62.5,0 -94.5-32.5 -94.5-95zM 172.5,382.5c0-113.5 59.5-173 173-173c-113.5,0 -173-59.5 -173-173c0,113.5 -59,173 -172.5,173c 113.5,0 172.5,59.5 172.5,173zM 297.5,143.5c0-29.5 15.5-45.5 45-45.5l 0.5,0 
c-30,0 -45.5-15.5 -45.5-45c0,29.5 -15.5,45 -45,45c 29.5,0 45,16 45,45.5z" horiz-adv-x="409.5"  />
<glyph unicode="&#x71;" d="M0,77.5l0,293 l 358.5,0 l0-293 l-358.5,0 zM 322,174.5l0,159.5 l-285.5,0 l0-135.5 l 78,46.5l 102-55.5l 41.5,24.5zM 255,248.5c-16,0 -28.5,13 -28.5,29s 12.5,29 28.5,29s 28.5-13 28.5-29s-12.5-29 -28.5-29z" horiz-adv-x="358"  />
<glyph unicode="&#x72;" d="M 179,403.5c 99,0 179.5-80.5 179.5-179.5s-80.5-179 -179.5-179s-179,80 -179,179s 80,179.5 179,179.5zM 177,337.5c-5-6 -7.5-13 -7.5-20.5c0-6 2-11 5-14.5c 3.5-3.5 8.5-5.5 13.5-5.5c 7,0 13.5,3 18.5,9c 4.5,5.5 7,13.5 7,22c0,5 -1.5,9.5 -5,13s-8.5,5.5 -13.5,5.5c-6.5,0 -13-3 -18-9z
M 131.5,234l 6-6.5c 4.5,5 9,9 12,11.5c 3,2 5.5,3 7.5,3c 1.5,0 3-0.5 4-1.5c 0.5-1.5 1-3 1-5.5c0-12.5 -1.5-20.5 -8-50.5s-10-52 -10-66.5c0-5.5 1-9.5 3-12c 1.5-2.5 4.5-4.5 8.5-4.5c 6.5,0 16,5 27,13.5c 11,9 22,21.5 34,37.5l-6.5,5.5c-4-5 -8-8.5 -11-11c-3-2 -5.5-4 -7.5-4c-1.5,0 -3,1.5 -4,2.5
c-0.5,1.5 -1,3.5 -1,6.5c0,2 0.5,8.5 2.5,20c 1.5,11.5 1,11.5 4,28.5c 0.5,5 2,12 3.5,20.5c 4,25.5 6.5,41 6.5,46c0,4.5 -1.5,8.5 -3,11c-2,2.5 -5,3.5 -8.5,3.5c-6,0 -14-4.5 -25-12.5c-11-8.5 -22-20 -35-35z" horiz-adv-x="358"  />
<glyph unicode="&#x73;" d="M 64.5,390.5l 204,0 c 36,0 64.5-28.5 64.5-64.5l0-153.5 c-1.5-15 -9-29 -17-33.5c-9-5 -27,1.5 -40.5-6.5c-14-8 -15.5-26 -24.5-33c-11-8 -20-10.5 -36-12l-158,0 c-31,0 -57,25 -57,56l0,182.5 c0,36 28.5,64.5 64.5,64.5zM 192.5,320.5l 14.5,0 l0,19 l-80,0 l0-19 l 13.5,0 c 5,0 9.5-4.5 9.5-10l0-142.5 
c0-5.5 -4.5-10 -9.5-10l-13.5,0 l0-19 l 80,0 l0,19 l-14.5,0 c-5,0 -9.5,4.5 -9.5,10l0,142.5 c0,5.5 4.5,10 9.5,10zM 276,87.5l-60.5,0 c 57,0 117.5,36 117.5,85l0-29 c0-31 -26-56 -57-56zM 57,80l 219,0 c 31,0 57,26 57,57l0-6.5 c0-31 -26-57 -57-57l-219,0 c-31,0 -57,26 -57,57l0,6.5 
c0-31 26-57 57-57zM 57,67l 219,0 c 31,0 57,25.5 57,56.5l0-1.5 c0-36 -28.5-64.5 -64.5-64.5l-204,0 c-36,0 -64.5,28.5 -64.5,64.5l0,1.5 c0-31 26-56.5 57-56.5z" horiz-adv-x="332.5"  />
<glyph unicode="&#x74;" d="M 268.5,162.5l 91.5,0 c-22-66 -85-113.5 -158.5-113.5c-72,0 -133.5,46 -157,110c-20.5-42.5 -25-77 -9-92.5c 19-19.5 48-17.5 83-0.5c-44.5-25.5 -82.5-32.5 -106-9c-27.5,27.5 -9,126.5 59.5,213c0,0 0,0.5 0.5,0.5c 2.5,3.5 6,7.5 9,11c0,0 0.5,0 0.5,0.5c 1,1.5 2.5,3 4,4.5c 0.5,0.5 1,1 1,1.5c 1.5,1 2.5,2.5 3.5,3.5l 1.5,1.5
c 1,1 2,3 3,4c 0.5,0.5 1.5,1 2,1.5l 5,5l 7.5,7.5c 0.5,0.5 1,0.5 1.5,1c 2.5,2.5 5.5,5 7.5,7.5c 1,0.5 1.5,1 2,1.5l 7.5,6c 0.5,1 1,1.5 1.5,2l 6,4.5c 1,1 2,1.5 2.5,2c 2,2 5,4 7,5.5c 1,1 2,1.5 3,2.5l 6,4.5c 1.5,1 3,2 4,2.5c 1,1 2.5,1.5 3.5,2.5l 7.5,4.5l 2,2c 5,3 10.5,6 15.5,9c-42.5-18 -91.5-55.5 -134-106.5c-5.5-6.5 -11-13.5 -15.5-20
c 12.5,80 81,141.5 164.5,141.5c 4,0 8,0 12-0.5c 59.5,27.5 112.5,31.5 134,9.5c 18.5-18 19-44.5 6.5-76c 7,24 4.5,44 -10,58.5c-16,16 -45.5,13.5 -82.5-3c 62.5-24 107-85 107-155.5c0-7 -0.5-14 -1-20.5l-237,0 c 1.5-13 6-24 11-33.5c 13.5-24.5 35.5-38 60-38c 27,0 53.5,8.5 67,38zM 131.5,242.5l 143.5,0 
c-8,46.5 -40,65.5 -73.5,65.5c-33,0 -61.5-24 -70-65.5z" horiz-adv-x="368.5"  />
<glyph unicode="&#x75;" d="M 38,416l 132.5,0 c 21,0 38-17 38-38l0-308 c0-21 -17-38 -38-38l-132.5,0 c-21,0 -38,17 -38,38l0,308 c0,21 17,38 38,38zM 24.5,107.5l 159.5,0 l0,236.5 l-159.5,0 l0-236.5 zM 104,55c 12,0 21,9 21,20.5c0,12 -9,21 -21,21c-11.5,0 -20.5-9 -20.5-21c0-11.5 9-20.5 20.5-20.5z" horiz-adv-x="208"  />
<glyph unicode="&#x76;" d="M 4,76l-4-18c 1.5,0 4,0 8,0.5c 3,0 8,0.5 13.5,1c 17.5,2 31,3 39.5,2.5l 43.5,0 c 9.5-1 17.5-2 23-3c 5-0.5 8.5-0.5 9.5-0.5c 1.5-1 3-1 4-1l 2.5,0 l 3,0 c 1.5,0 3.5,0 6,0.5l 2.5,0 c 0.5,0.5 1.5,0.5 2.5,0.5c 1,1.5 1.5,3.5 1.5,5s 1,2.5 1.5,3.5c0,2 0.5,3.5 0.5,6c0,1.5 0.5,4 0.5,6.5c-4,0.5 -7.5,1.5 -10,2s-4,0.5 -4.5,0.5c-8.5,1 -16.5,2.5 -26.5,4.5c-0.5,1.5 -0.5,2.5 -0.5,3.5l0,2.5 
l 3,9.5l 9,51l 9,34l 13.5,68c 2.5,15.5 8,37 14.5,66c 0.5,4.5 1.5,10.5 3,17.5c 2,8 3.5,14 5.5,19c 5.5,2 13,4.5 22.5,7c 8.5,2 17.5,4 24.5,6.5c 1,4.5 2,8.5 3,11c0,1.5 0.5,3 0.5,4.5c 0.5,1 0.5,2.5 0.5,4c-1.5,0 -4.5,0 -8.5-0.5c-4,0 -8.5-0.5 -14.5-1c-22.5-1.5 -38-2 -48-2l-5.5,0 c-3,0 -6.5,0.5 -11,0.5l-70.5,3l-4.5-22.5l 4,0 c 1-0.5 3.5-0.5 5-0.5
c 15.5-1 25.5-3 32-6l0-9 l-2-10l-4.5-29.5l-3.5-14l-7-34c0-0.5 -1.5-5.5 -4-13.5c-2.5-8.5 -5.5-21 -8.5-38.5l-2.5-14l-13-58l-6-29.5c-1.5-9 -5-17 -9-22.5c-6-2.5 -14-6 -26-8.5c-7.5-2 -14-3 -17-4.5z" horiz-adv-x="228"  />
<glyph unicode="&#x77;" d="M 159,156l-19.5,20s-55.5-21.5 -111.5,34c-47.5,47.5 -26.5,122 4.5,152.5c 33,33 103.5,53 155,1.5s 29.5-112.5 29.5-112.5l 141.5-141l-4-73.5l-72-4.5l-4,36l-37.5,4.5l-3.5,37.5l-37,5l-5.5,36zM 52,342.5c-22-22 -28-51.5 -13.5-65.5c 14.5-14.5 43.5-8.5 65.5,13.5s 28.5,51.5 14,65.5c-14,14.5 -44,8.5 -66-13.5zM 341.5,82.5
l 1,21l-134.5,134.5l-11-11z" horiz-adv-x="358"  />
<glyph unicode="&#x78;" d="M 15,347l 354,0 c 8,0 15-7 15-15l0-216 c0-8 -7-15 -15-15l-354,0 c-8,0 -15,7 -15,15l0,216 c0,8 7,15 15,15zM 25.5,127l 333,0 l0,194.5 l-333,0 l0-194.5 zM 61.5,301l 30.5,0 l0-31 l-30.5,0 l0,31 zM 119.5,301l 30.5,0 l0-31 l-30.5,0 l0,31 zM 176.5,301l 31,0 l0-31 l-31,0 l0,31 zM 234.5,301l 30,0 l0-31 l-30,0 l0,31 zM 292,301l 30.5,0 l0-31 l-30.5,0 l0,31 z
M 90.5,239.5l 31,0 l0-31 l-31,0 l0,31 zM 148.5,208.5l0,31 l 30.5,0 l0-31 l-30.5,0 zM 206,208.5l0,31 l 30.5,0 l0-31 l-30.5,0 zM 294.5,208.5l-31,0 l0,31 l 31,0 l0-31 zM 264.5,147.5l-145,0 l0,30.5 l 145,0 l0-30.5 z" horiz-adv-x="384"  />
<glyph unicode="&#x79;" d="M 306.5,332l 2.5-4c 8.5-16.5 21-39.5 11-65.5c-3.5-9 -11-15.5 -18-21c-3-2.5 -6-5 -8.5-7.5c 6.5-25 17-45 30.5-58.5c 1-1 3-2.5 5-4c 6-3.5 14-9 12-19c0-1 -1-2 -2.5-2c-11.5,0 -21.5,7 -33,21.5c-10,14.5 -19.5,32.5 -27,56.5c-2.5-1 -5.5-1.5 -8.5-2.5c-1.5,0 -3.5-0.5 -5-1
c 2-12 4-23 5.5-35c 3-26 6-50.5 18-69.5c 1.5-2.5 3.5-4.5 5.5-7c 5-5 10.5-11.5 6.5-21.5c-0.5-1 -1-1.5 -1.5-1.5c-1-0.5 -1.5,0 -2,0c-30,16.5 -35.5,57 -40.5,96.5c-1.5,12 -3,24.5 -5,36c-2,0 -3.5-0.5 -5.5-0.5c-5.5-1 -12-2 -18-2c 1.5-33.5 5.5-66 9-95c 0.5-8 1.5-16.5 2.5-24c 0.5-4 2-10.5 4-17.5l0-1 
c0-0.5 0.5-1.5 0.5-2.5c 1.5-3.5 4.5-9 2-13.5c-1-1.5 -3-3 -5-4l-2.5,0 c-10,0 -12.5,19 -13.5,31l-0.5,3c-1,8.5 -2.5,18.5 -3.5,27.5c-4,30.5 -8,62 -9.5,94.5c-6.5-1 -14-1.5 -20.5-2c-4.5,0 -10-0.5 -15-0.5c 9-22.5 5.5-51 2.5-78c-3.5-30 -6.5-59 5-79.5c 1.5-2.5 3.5-4 6-6c 4.5-3.5 10-8 6-19
c-0.5-1.5 -2-2 -3-1.5c-36,12 -31.5,56.5 -27.5,99.5c 2.5,27.5 5,56 -2.5,76.5c-0.5,3 -0.5,5 0.5,6.5c-6.5-0.5 -13.5-1 -21-1c-4-18 -7.5-37.5 -10.5-59c-1-6 -2-12.5 -3-18.5c-4-28 -8.5-57 -8-89.5c 0.5-2.5 1-5.5 1.5-8c 1.5-6.5 2.5-14.5 -5-19c-0.5-0.5 -1-0.5 -1.5-0.5l-0.5,0 c-9,1 -8.5,14 -8.5,21l0,2.5 
c0,37 6.5,75 12,112.5c 3,20 5.5,38.5 7.5,57c-4.5,0.5 -11,0.5 -16-0.5c-2.5,0 -5-0.5 -7-0.5c-4-39 -14-76 -30-112c-0.5-2 -1.5-4 -2-6c-3.5-9 -8-20 -18-24c-1,0 -2.5,0 -3,1.5c-5.5,9 1,18.5 5.5,25.5c 2,2.5 3.5,5.5 4.5,7.5c 15,31.5 24,68 28,108c-2.5,1 -7.5,1 -9.5,1c-1.5,0 -3.5-0.5 -5-0.5l-6.5,0 
c-2-34 -14-64 -34.5-85c-6.5-7 -14-14 -21.5-13c-1,0 -2,0.5 -2.5,1c-2,3 -2.5,6.5 -2,9c 1.5,4 6,6.5 10,8.5c 1.5,1 3.5,2 4.5,3c 18,19 29.5,46.5 31.5,76.5c0,0.5 -2,0.5 -3.5,0l-4.5,0 c-0.5,0.5 -1,0.5 -1.5,1c-3,2.5 -5.5,4.5 -8.5,7c-16,13 -31,25 -34,51c-3,27.5 6.5,47.5 15,66.5c 1.5,2.5 2.5,5.5 4,8c 12,26.5 27,47 44.5,59.5
c 22,15.5 50.5,23.5 83,23.5c 18.5,0 38-3 57-8.5c 45-13 77.5-41 102.5-88.5zM 287.5,248c 20.5,12 25,38.5 10.5,65c-20.5,38.5 -46.5,68.5 -70,82c-15.5,8.5 -52.5,19 -80.5,19c-3,0 -6-0.5 -8.5-0.5c-43.5-4 -75-21.5 -95.5-53c-5.5-9.5 -25-42.5 -27.5-68c-2-20.5 1.5-35 11-46c 13-14 35.5-20.5 71.5-20.5
c 18.5,0 38,2 57,3.5c 10,1 20,2 29,2.5c 5.5,0.5 11.5,1 17.5,1c 32.5,1.5 65.5,3 85.5,15zM 228.5,332.5c-1-1.5 -2.5-3 -4-3.5c-0.5-0.5 -2-1 -2.5-1l-1,0 l-1,0 s-1,0.5 -1.5,0.5c-2.5,1 -5,3 -6,5.5c-0.5,0 -0.5,0 -1,0.5c-0.5,2 -0.5,4 -0.5,6c0,3.5 1,6.5 2.5,8.5c 1,2 2.5,3 4.5,3.5c 0.5,0.5 1,1 1.5,1l 1.5,0 l 0.5,0 c 0.5,0 1,0 1.5-0.5c 3-1 5.5-2.5 7-5
c0-0.5 0-0.5 0.5-0.5c 0.5-2 1-4 0.5-6c0-3 -0.5-6.5 -2.5-9zM 100,320.5c-6,0 -11,3.5 -12,9c-0.5,3.5 0,7.5 2,10c 4,4.5 12.5,4.5 16.5,0c 2-2 4-6.5 3-13.5c0,0 0-0.5 -0.5-1c-2.5-3 -5.5-4.5 -9-4.5zM 264,299.5c 0.5-0.5 0.5-1 0.5-1.5c-1.5-7 -8.5-15 -16-15c-2.5,0 -5,0.5 -6.5,2c-1,0.5 -1.5,1.5 -1,2.5
c-3-2.5 -6-4.5 -9.5-6l-1,0 c-1,0 -2,0.5 -2.5,1.5c0,0 0,0.5 -0.5,0.5c-1,0.5 -2,1.5 -1.5,3c 1,8 8,14.5 15.5,14.5l 3.5,0 c 0.5-0.5 2-1 2-1.5c 0.5-0.5 0.5-1.5 0-2c0-1 -0.5-1.5 -1-2.5c 4.5,4.5 11,7 16.5,6c 0.5-0.5 1-0.5 1.5-1.5zM 279.5,297.5c 1-0.5 1.5-1.5 1.5-2c0-2.5 -0.5-5 -2-6.5c-2-2 -5-3.5 -8-3.5s-6.5,1.5 -8,3c-0.5,0.5 -0.5,1.5 -0.5,2
c0,4.5 5,8.5 11,8.5c 2.5,0 4.5-0.5 6-1.5zM 52,272.5l0,1 l-0.5,0.5c-0.5,0 -1,0.5 -1.5,1c-0.5,1 -0.5,1.5 -0.5,2c 1.5,6.5 8.5,13 15,13c 1,0 2,0 2.5-0.5c 1.5,0 2.5-1.5 2-3c-1-7.5 -6-13 -13.5-15l-0.5,0 c-1,0 -2.5,0.5 -3,1zM 92,288l0-2 c-3-6 -7-13.5 -15.5-16.5c-0.5-0.5 -0.5-0.5 -1-0.5c-1,0 -2.5,0.5 -3,1.5l0,1 c-1,0 -1.5,0.5 -2,1
c0,0.5 -0.5,2 0,2.5c 2,7.5 8,15 16,15c 1,0 2.5,0 3.5-0.5c 1,0 1.5-0.5 2-1.5zM 109,287.5c 1,0 1.5,0 2-0.5c 0.5-1 1-1.5 0.5-2.5c-1-9.5 -8.5-13.5 -14-16c-0.5-0.5 -1-0.5 -1-0.5c-1,0 -2,0.5 -2.5,1c-2.5,3 -3,6.5 -1.5,9.5c 2.5,5.5 10.5,9 16.5,9zM 196,280.5c 2,0 4-0.5 6-2c 1-0.5 2-1.5 1.5-2.5c-2.5-15.5 -22-22 -39-22
c-18.5,0 -32,7.5 -35,20c0,0.5 0,2 1,2.5c 2,1.5 4.5,2.5 7,2.5c 3.5,0 7.5-2.5 10-5c 2-1.5 4-3.5 6-4c 7.5-2.5 16-2 24.5,1c 2.5,1 5,3 7,4.5c 3.5,2.5 7,5 11,5z" horiz-adv-x="341.5"  />
<glyph unicode="&#x7a;" d="M 179,398.5c 99,0 179.5-77.5 179.5-174.5s-80.5-174.5 -179.5-174.5s-179,77.5 -179,174.5s 80,174.5 179,174.5zM 69,253.5l 1.5-0.5c 2.5,0 5,1.5 6,4c0,0.5 5.5,24.5 27.5,24.5c 22.5,0 27.5-23.5 28-24.5c 1-2.5 3-4 5.5-4l 16,5c 1.5,0.5 2.5,1.5 3,3c 1,1.5 1,3 0.5,4c-0.5,2 -10,42.5 -53,42.5c-45.5,0 -52.5-40.5 -53-42s-0.5-3 0.5-4.5
c 0.5-1.5 2-2.5 3.5-3zM 287.5,253l 16,5c 1.5,0.5 2.5,1.5 3,3c 1,1.5 1,3 0.5,4c-0.5,2 -10,42.5 -52.5,42.5c-45.5,0 -53-40.5 -53.5-42s-0.5-3 0.5-4.5c 0.5-1.5 2-2.5 3.5-3l 14-4.5l 1.5-0.5c 2.5,0 5,1.5 6,4c0,0.5 5.5,24.5 28,24.5c 22,0 27.5-23.5 27.5-24.5c 1-2.5 3-4 5.5-4zM 277,174.5c 3.5,10 -2,21.5 -12,25.5s-162.5,4 -172,0
c-10-4 -15-15.5 -11.5-25.5c 16-40.5 54-67 97.5-67s 82,26.5 98,67z" horiz-adv-x="358"  />
<glyph unicode="&#x7b;" d="M 113.5,225l 123-123l-59.5-57l-177,177l 181,181.5l 56.5-56z" horiz-adv-x="237.5"  />
<glyph unicode="&#x7c;" d="M 179,398.5c 99,0 179.5-77.5 179.5-174.5s-80.5-174.5 -179.5-174.5s-179,77.5 -179,174.5s 80,174.5 179,174.5zM 293.5,232.5l 4,10.5c 1.5,4 -0.5,8.5 -4.5,10l-58.5,21l 54,31c 3.5,2 4.5,6.5 2.5,10l-6,10c-2,3.5 -6.5,4.5 -9.5,2.5l-80.5-46c-3.5-2 -4-5 -3.5-11.5s 1.5-9 5-10.5l 87.5-31.5c 3.5-1.5 8,1 9.5,4.5zM 129,313l-20.5,0 
c-5.5,0 -9.5-4.5 -9.5-10l0-50 c0-5.5 4-10.5 9.5-10.5l 20.5,0 c 5,0 10,5 10,10.5l0,50 c0,5.5 -5,10 -10,10zM 114,192l-19.5-6.5c-2-0.5 -3.5-2 -4-3.5c-1-1.5 -1-3.5 -0.5-5.5s 18-52.5 89-52c 71-0.5 89,50 89.5,52s 0.5,4 -0.5,5.5c-0.5,1.5 -2.5,3 -4.5,3.5l-17,6l-2.5,0.5c-3,0 -5.5-2.5 -6.5-5
c0-0.5 -11-30.5 -58.5-30.5c-47,0 -57.5,29 -58,30.5c-1,2.5 -4,5 -7,5z" horiz-adv-x="358"  />
<glyph unicode="&#x7d;" d="M 166.5,265.5l 40,40.5c 3.5,3.5 7.5,8 11.5,13c 4,4.5 8.5,8.5 13,12c 8.5,7.5 18.5,14 31,14c 11,0 20.5-5 27.5-11.5s 11-16 11-27c0-4.5 -0.5-9.5 -2-13c-3.5-7 -6.5-12 -9.5-16c-1.5-2 -3-4 -3-6c0-1.5 0-3 1-3.5c 5.5-13.5 9.5-25 12-39c 1.5-5.5 4.5-8 9.5-8c 2,0 4,0.5 6,2c 4,2.5 7.5,6.5 11,10.5
c 2,2 3.5,4 4.5,5c 18,17.5 28.5,42.5 28.5,68c0,27 -11,51 -28.5,68.5c-17.5,17 -42,28.5 -68,28.5s-51-10.5 -68.5-29l-68.5-68c-18-18.5 -28-42.5 -28-68c0-7.5 3-23 8-37.5c 5-14 11.5-26.5 20-26.5c 4.5,0 14,7.5 22,16s 16,18 16,21.5c0,2.5 -2,5.5 -4,10c-2.5,4.5 -3.5,10 -3.5,16.5c0,10 4,20 11,27zM 165,73.5
l 68.5,68c 18,17.5 28,43 28,68.5c0,7.5 -3,22.5 -8,37c-4.5,14 -11.5,27 -20,27c-3.5,0 -14-8 -21.5-16.5c-8.5-8.5 -16.5-17.5 -16.5-21c0-2.5 1.5-6.5 4-10.5c 2.5-4.5 4.5-9.5 4.5-16c-0.5-10 -4.5-20 -11.5-28l-40.5-40c-3.5-4 -7.5-8 -11.5-12.5l-12.5-12.5c-8.5-8 -19-13.5 -31.5-13.5c-21,0 -38,16.5 -38,38
c0,5 1,9.5 2.5,13c 3,7 6,12 9.5,16c 1.5,2 2,4 2,5.5c0,1 -0.5,2 -1,4c-6,13.5 -9.5,25 -12,39c-1,2.5 -1.5,4.5 -3,5.5c-1.5,2 -4,2.5 -6.5,2.5c-2,0 -3.5-0.5 -5.5-2c-4-2.5 -8-6.5 -11.5-10.5c-1.5-2 -3.5-3.5 -4.5-4.5c-18-18 -28.5-43 -28.5-68.5c0-26.5 10.5-51 28.5-68.5c 17.5-17.5 41.5-28 68-28
c 26,0 51,10 68.5,28.5z" horiz-adv-x="358"  />
<glyph unicode="&#x7e;" d="M0,348.5l0-249 c0-23.5 18.5-42 42-42l 249,0 c 11.5,0 22.5,5.5 29.5,12.5c 7.5,7.5 12.5,17 12.5,29.5l0,249 c0,23.5 -18.5,42 -42,42l-249,0 c-12.5,0 -22-5 -29.5-12.5c-7-7 -12.5-18 -12.5-29.5zM 45,315.5c0,16 13,30 29,30c 16.5,0 30-14 30-30c0-16.5 -13.5-29.5 -30-29.5c-16,0 -29,13 -29,29.5zM 125.5,110l0,152.5 
c0,3.5 3.5,6.5 6,6.5l 42.5,0 c 6,0 6-7 6-11.5c 12,12 27.5,15 43.5,15c 39,0 64-18.5 64-59.5l0-103 c0-3.5 -3-6.5 -6-6.5l-44,0 c-3.5,0 -6,3.5 -6,6.5l0,93 c0,15.5 -4.5,24 -22,24c-22,0 -27.5-14.5 -27.5-34l0-83 c0-3.5 -3.5-6.5 -7-6.5l-43.5,0 c-2.5,0 -6,3.5 -6,6.5zM 46,110l0,152.5 c0,3.5 3.5,6.5 6,6.5l 43.5,0 
c 4,0 6.5-2.5 6.5-6.5l0-152.5 c0-3.5 -3-6.5 -6.5-6.5l-43.5,0 c-3,0 -6,3.5 -6,6.5z" horiz-adv-x="332.5"  />
<glyph unicode="&#xe000;" d="M 64.5,338.5c0,18 -14,32 -32,32s-32.5-14 -32.5-32s 14.5-32.5 32.5-32.5s 32,14.5 32,32.5zM 102,312l 282,0 l0,52 l-282,0 l0-52 zM 64.5,224c0,18 -14,32.5 -32,32.5s-32.5-14.5 -32.5-32.5s 14.5-32 32.5-32s 32,14 32,32zM 102,198l 282,0 l0,52 l-282,0 l0-52 zM 64.5,110c0,18 -14,32 -32,32s-32.5-14 -32.5-32s 14.5-32.5 32.5-32.5
s 32,14.5 32,32.5zM 102,84.5l 282,0 l0,51.5 l-282,0 l0-51.5 z" horiz-adv-x="384"  />
<glyph unicode="&#xe001;" d="M 166.5,48.5l 166.5,351l-333-178l 166.5,0 l0-173 z" horiz-adv-x="332.5"  />
<glyph unicode="&#xe002;" d="M 234,237.5l 33.5,0 c 4.5,0 8-4 8-8.5l0-176 c0-4.5 -3.5-8 -8-8l-259.5,0 c-4.5,0 -8,3.5 -8,8l0,176 c0,4.5 3.5,8.5 8,8.5l 32.5,0 l0,82 c0,46 29.5,84 75,84l 43,0 c 46,0 75.5-38 75.5-84l0-82 zM 83,237.5l 109,0 l0,0.5 l0,77.5 c0,25.5 -21,47 -47,47l-15.5,0 c-25.5,0 -46.5-21.5 -46.5-47l0-77.5 l0-0.5 zM 114.5,96l 46.5,0 l-11.5,50.5
c 8,4 13.5,12.5 13.5,22c0,14.5 -11.5,25.5 -25.5,25.5s-25-11 -25-25.5c0-9.5 5.5-18 13.5-22z" horiz-adv-x="275"  />
<glyph unicode="&#xe003;" d="M 195.5,61.5l 97.5,0 c 18.5,0 34,6.5 46,19c 12,12 19.5,28 19.5,46l0,195.5 c0,18 -7.5,34 -19.5,46s-28,19 -46,19l-97.5,0 l0-41 l 97.5,0 c 14,0 24.5-10.5 24.5-24l0-195.5 c0-13.5 -10.5-24.5 -24.5-24.5l-97.5,0 l0-40.5 zM0,263l0-78 c0-9 7.5-16.5 16.5-16.5l 91,0 l0-61.5 c0-5.5 2.5-10 7.5-12.5c 2-0.5 4.5-0.5 5.5-0.5c 3.5,0 6.5,1 9,3.5l 117.5,117.5
c 4.5,4.5 4,13.5 0,18.5l-117.5,117c-4,4 -9,4.5 -14.5,3c-5-2.5 -7.5-6.5 -7.5-12l0-62 l-91,0 c-9,0 -16.5-7.5 -16.5-16.5z" horiz-adv-x="358"  />
<glyph unicode="&#xe004;" d="M0,322l0-195.5 c0-18 7.5-34 19.5-46.5c 12-12 27.5-18.5 45.5-18.5l 98,0 l0,40.5 l-98,0 c-13.5,0 -24,11 -24,24.5l0,195.5 c0,13.5 10.5,24 24,24l 98,0 l0,41 l-98,0 c-18,0 -33.5-7 -45.5-19c-12-12.5 -19.5-28 -19.5-46zM 107.5,263l0-78 c0-9 8-16.5 17-16.5l 90.5,0 l0-61.5 c0-5.5 3-10 8-12.5c 2-0.5 4-0.5 5-0.5
c 3.5,0 6.5,1 9,3.5l 117.5,117.5c 5.5,4.5 5,13.5 0,18.5l-117.5,117c-7,7.5 -22,3 -22-9l0-62 l-90.5,0 c-9,0 -17-7.5 -17-16.5z" horiz-adv-x="358"  />
<glyph unicode="&#xe005;" d="M 152,326l-14.5-46.5l-14,46.5l-46.5,14.5l 46.5,14l 14,47l 14.5-47l 46.5-14zM 233,351.5l-7-23.5l-8,23.5l-23,7.5l 23,7l 8,23l 7-23l 23-7zM 4.5,96l 286.5,278c 2,2.5 5,4 8.5,4c 4.5,0.5 9-1 12.5-4.5c 1.5-1 3.5-3 6.5-5.5c 5.5-5 11.5-11 16-17c 2-3 3-5.5 3-8c 0.5-5 -1-9.5 -4-12.5l-286.5-279
c-2.5-2.5 -5.5-3.5 -9-4c-4.5-0.5 -9,1 -12.5,4.5c-1.5,1.5 -3.5,3 -6.5,6c-5.5,4.5 -11.5,10.5 -15.5,17c-2,3 -3,6 -3.5,8.5c-0.5,5 1,9 4.5,12.5zM 234.5,298l 21-21.5l 66.5,64.5l-21,22zM 95,269.5l-6.5-23l-7,23l-23,7.5l 23,7l 7,23.5l 6.5-23.5l 24-7zM 328,287l 7.5-23.5l 23-7l-23-7.5l-7.5-23l-7.5,23l-23,7.5
l 23,7z" horiz-adv-x="358"  />
<glyph unicode="&#xe006;" d="M 384,346l-192-164.5l-192,164.5l0,9.5 l 384,0 l0-9.5 zM 384,114l-127,91.5l 127,110l0-201.5 zM0,315.5l 127-110l-127-91.5l0,201.5 zM 192,149l 52.5,46l 139.5-100.5l0-2 l-384,0 l0,2 l 139.5,100.5z" horiz-adv-x="384"  />
<glyph unicode="&#xe007;" d="M0,79l 110,41.5l0,248.5 l-110-41.5l0-248.5 zM 234.5,79l-110.5,41.5l0,248.5 l 110.5-41.5l0-248.5 zM 248.5,79l 110,41.5l0,248.5 l-110-41.5l0-248.5 z" horiz-adv-x="358"  />
<glyph unicode="&#xe008;" d="M 100.5,273.5l0,117 l 33.5,0 l0-134 c0-18.5 -15-34 -33.5-34l0-148 c0-9 -7.5-17 -17-17l-33.5,0 c-9,0 -16.5,8 -16.5,17l0,148 c-18.5,0 -33.5,15.5 -33.5,34l0,134 l 33.5,0 l0-117 l 16.5,0 l0,117 l 33.5,0 l0-117 l 17,0 zM 184.5,222.5l0,118 c0,27.5 22.5,50 50,50s 50-22.5 50-50l0-266 c0-9 -7-17 -16-17l-34,0 c-9,0 -17,8 -17,17
l0,148 l-33,0 z" horiz-adv-x="285"  />
<glyph unicode="&#xe009;" d="M 79,403.5l 200.5,0 c 31.5,0 58-26.5 58-58l0-242.5 c0-31.5 -26.5-58 -58-58l-200.5,0 c-31.5,0 -58,26.5 -58,58l0,5.5 l-10,0 c-6,0 -11,4.5 -11,10s 5,11 11,11l 10,0 l0,84 l-10,0 c-6,0 -11,5 -11,10.5s 5,11 11,11l 10,0 l0,84 l-10,0 c-6,0 -11,5 -11,10.5s 5,10.5 11,10.5l 10,0 l0,5.5 c0,31.5 26.5,58 58,58zM 305.5,103
l0,242.5 c0,14.5 -11.5,26 -26,26l-200.5,0 c-14.5,0 -26.5-11.5 -26.5-26l0-5.5 l 21,0 c 5.5,0 11-5 11-10.5s-5.5-10.5 -11-10.5l-21,0 l0-84 l 21,0 c 5.5,0 11-5.5 11-11s-5.5-10.5 -11-10.5l-21,0 l0-84 l 21,0 c 5.5,0 11-5.5 11-11s-5.5-10 -11-10l-21,0 l0-5.5 c0-14.5 12-26.5 26.5-26.5l 200.5,0 c 14.5,0 26,12 26,26.5zM 126.5,340l 126.5,0 
c 6,0 10.5-5 10.5-10.5s-4.5-10.5 -10.5-10.5l-126.5,0 c-5.5,0 -11,5 -11,10.5s 5.5,10.5 11,10.5zM 126.5,298l 126.5,0 c 6,0 10.5-5 10.5-10.5c0-6 -4.5-10.5 -10.5-10.5l-126.5,0 c-5.5,0 -11,4.5 -11,10.5c0,5.5 5.5,10.5 11,10.5zM 126.5,256l 126.5,0 c 6,0 10.5-5 10.5-11c0-5.5 -4.5-10 -10.5-10l-126.5,0 c-5.5,0 -11,4.5 -11,10
c0,6 5.5,11 11,11zM 126.5,213.5l 126.5,0 c 6,0 10.5-5 10.5-10.5c0-6 -4.5-10.5 -10.5-10.5l-126.5,0 c-5.5,0 -11,4.5 -11,10.5c0,5.5 5.5,10.5 11,10.5zM 126.5,171.5l 126.5,0 c 6,0 10.5-5 10.5-11c0-5.5 -4.5-10 -10.5-10l-126.5,0 c-5.5,0 -11,4.5 -11,10c0,6 5.5,11 11,11zM 126.5,129.5l 126.5,0 c 6,0 10.5-5.5 10.5-11s-4.5-10 -10.5-10
l-126.5,0 c-5.5,0 -11,4.5 -11,10s 5.5,11 11,11z" horiz-adv-x="337"  />
<glyph unicode="&#xe00a;" d="M 22,333.5l 289,0 c 12.5,0 22,9.5 22,22c0,12 -9.5,21.5 -22,21.5l-289,0 c-12.5,0 -22-9.5 -22-21.5c0-12.5 9.5-22 22-22zM 22,246l 289,0 c 12.5,0 22,9.5 22,22c0,12 -9.5,21.5 -22,21.5l-289,0 c-12.5,0 -22-9.5 -22-21.5c0-12.5 9.5-22 22-22zM 22,158.5l 289,0 c 12.5,0 22,9.5 22,21.5c0,12.5 -9.5,22 -22,22l-289,0 
c-12.5,0 -22-9.5 -22-22c0-12 9.5-21.5 22-21.5zM 22,71l 289,0 c 12.5,0 22,9.5 22,21.5c0,12.5 -9.5,22 -22,22l-289,0 c-12.5,0 -22-9.5 -22-22c0-12 9.5-21.5 22-21.5z" horiz-adv-x="332.5"  />
<glyph unicode="&#xe00b;" d="M0,263.5l 379,0 l0-79 l-379,0 l0,79 z" horiz-adv-x="378.5"  />
<glyph unicode="&#xe00c;" d="M 176,389c 100,6.5 188-59.5 181.5-159.5c-6-96.5 -88.5-146.5 -167.5-177l0,35.5 c-104.5-7.5 -199.5,43 -189.5,150.5c 7.5,83 90.5,144.5 175.5,150.5zM 257,164.5l 25.5,0 l0,79 c0,20.5 -1.5,35.5 -10,45.5c-9,10 -15.5,15.5 -37.5,15.5c-16.5,0 -33.5-8.5 -48-26.5c-9.5,17.5 -19.5,26.5 -41.5,26.5c-14,0 -34.5-8 -45.5-25.5l0,23 l-26,0 l0-137.5 l 26,0 
l0,71 c0,21.5 10,33.5 18,39.5c 5.5,4 13.5,6.5 19.5,6.5c 10,0 18-3 22-9.5c 4-6 6.5-11.5 6.5-33.5l0-74 l 25.5,0 l0,77 c0,21.5 18.5,40 35.5,40c 16.5,0 21-5.5 26-11.5c 3.5-4 4-14.5 4-26.5l0-79 z" horiz-adv-x="357.5"  />
<glyph unicode="&#xe00d;" d="M 112,106l 58-58c 2.5-2.5 5.5-4 9-3.5c 4,0 7.5,1 10,3.5l 57.5,58c 8,8 5.5,14 -6,14l-39,0 l0,82 l 81,0 l0-40 c0-11.5 7-13.5 15-5.5l 57.5,57.5c 2.5,2.5 3.5,5.5 3.5,9.5c 0.5,3.5 -1,7 -3.5,10l-57.5,57c-8,8 -15,6 -14.5-5.5l0-39 l-81.5,0 l0,81 l 39,0 c 11.5,0 14,6.5 6,14.5l-57.5,57c-5,5 -14,5.5 -19,0l-58-57
c-8-8 -5.5-14.5 6-14.5l 39,0 l0-80.5 l-80.5,0 l0,38.5 c0,11.5 -7,13.5 -15,5.5l-57.5-57c-2.5-2.5 -3.5-6 -4-10c0-4 1.5-7 4-9.5l 57.5-57.5c 8-8 14.5-6 14.5,5.5l0,39.5 l 81,0 l0-81.5 l-39,0 c-11.5,0 -14-6 -6-14z" horiz-adv-x="358"  />
<glyph unicode="&#xe00e;" d="M 91,325.5l0-174.5 c-7.5,2 -15.5,3.5 -22.5,3.5c-16,0 -32.5-5.5 -46-14.5s-22.5-23.5 -22.5-40.5c0-18 9-31.5 22.5-40.5s 30-14 46-14c 15,0 32,5 45.5,14s 22,22.5 22,40.5l0,183 l 152.5,43.5l0-120.5 c-7,2 -15.5,3 -23,3c-15.5,0 -32.5-4.5 -46-13.5s-22-23.5 -22-40.5c0-18 8.5-32 22-40.5c 13.5-9 30.5-14.5 46-14.5
c 15,0 32.5,5.5 46,14.5c 14,8.5 22.5,22.5 22.5,40.5l0,230.5 c0,11 -7.5,18.5 -18.5,18.5c-1,0 -7-2 -16.5-4.5c-20-5.5 -50-14 -84-24c-17.5-4.5 -33-9.5 -48.5-13.5c-15-4.5 -28-9 -39.5-12c-12-3.5 -19.5-5.5 -22.5-6.5c-8-2.5 -13.5-9.5 -13.5-17.5z" horiz-adv-x="333.5"  />
<glyph unicode="&#xe00f;" d="M 215,349.5l-161,0 c-9.5,0 -18-8.5 -18-18l0-143 c0-9.5 8.5-18 18-18l 17.5,0 l0-36 l-17.5,0 c-29.5,0 -54,24.5 -54,54l0,143 c0,29.5 24.5,54 54,54l 161,0 c 29.5,0 54-24.5 54-54l-36,0 c0,9.5 -8.5,18 -18,18zM 143.5,313.5l 161,0 c 29.5,0 54-24 54-53.5l0-143.5 c0-29.5 -24.5-53.5 -54-53.5l-161,0 
c-29.5,0 -54,24 -54,53.5l0,143.5 c0,29.5 24.5,53.5 54,53.5zM 143.5,98.5l 161,0 c 9.5,0 18,8.5 18,18l0,143.5 c0,9.5 -8.5,18 -18,18l-161,0 c-9.5,0 -18-8.5 -18-18l0-143.5 c0-9.5 8.5-18 18-18z" horiz-adv-x="358"  />
<glyph unicode="&#xe010;" d="M0,83.5l0,281.5 l 244.5-141z" horiz-adv-x="244.5"  />
<glyph unicode="&#xe011;" d="M0,390.5l 339.5,0 l0-250 l-122,0 l-48-83l-47.5,83l-122,0 l0,250 z" horiz-adv-x="339"  />
<glyph unicode="&#xe012;" d="M 229.5,362c 59-25 100.5-83.5 100.5-152c0-90.5 -74-165 -165-165c-90.5,0 -165,74.5 -165,165c0,68.5 41.5,127 101,152l0-55.5 c-31-21 -52-56 -52-96.5c0-64 52-116 116-116s 116,52 116,116c0,40.5 -20.5,75.5 -51.5,96.5l0,55.5 zM 192.5,211l0,192.5 l-55,0 l0-192.5 l 55,0 z" horiz-adv-x="330"  />
<glyph unicode="&#xe013;" d="M 165,403.5c 98.5,0 168.5-72.5 168.5-178.5c0-98.5 -70-180 -168.5-180s-165,81.5 -165,180c0,104 66.5,178.5 165,178.5zM 165.5,85.5c 52,0 63,60 63,137c0,92.5 -14,141.5 -63,141.5c-56.5,0 -61-66 -61-148.5c0-77 14.5-130 61-130z" horiz-adv-x="333"  />
<glyph unicode="&#xe014;" d="M 178,403.5c 48,0 89.5-17.5 124.5-52.5c 35-35.5 52.5-78 52.5-128c0-49.5 -17.5-92 -52-126.5s-76-51.5 -124.5-51.5c-51,0 -94,17.5 -128,53s-50.5,77.5 -50.5,126c0,33 7.5,63 23.5,90s 37.5,49 65,65c 2.5,1.5 5.5,3.5 8.5,4.5c0,0 29-17.5 28.5-47c-25.5,12.5 -52.5-14 -52.5-14s 29,8 46.5-4.5
c-42.5-25 -65-76.5 -51.5-126.5c 16-60.5 78-96.5 138.5-80s 96,78 79.5,138c-15,56.5 -69,91 -125,83c 4,19.5 25,40.5 25,40.5s-22,3 -39.5-28.5c-5.5,34.5 -49,39 -49.5,39c 25,13.5 52,20 81,20zM 111,284.5c 11.5,11.5 27,14.5 34.5,7c 7-7.5 4-22.5 -8-34c-11.5-12 -26.5-15 -34-7.5
c-7,7 -4.5,22.5 7.5,34.5z" horiz-adv-x="354.5"  />
<glyph unicode="&#xe015;" d="M 163,229l 41,0 l0,154.5 l-41,0 l0-154.5 zM 228.5,272.5l 42.5-42.5c 7-7 7-18 0-25l-133.5-133c-6.5-7 -18-7 -24.5,0l-108,108c-6.5,6.5 -6.5,18 0,24.5l 133,133.5l0-129.5 l 90.5,0 l0,64 zM 265.5,260.5c0,0 33.5-13.5 33.5-79.5c0-41 -4.5-47.5 -4.5-47.5s 64-7 64,55.5c0,63 -93,71.5 -93,71.5z" horiz-adv-x="358"  />
<glyph unicode="&#xe016;" d="M 207,360.5l0-18.5 l 151.5,0 l0-30 l-151.5,0 l0-18.5 c0-5.5 -5-10 -10.5-10l-34.5,0 c-5.5,0 -10.5,4.5 -10.5,10l0,18.5 l-151.5,0 l0,30 l 151.5,0 l0,18.5 c0,5.5 5,10 10.5,10l 34.5,0 c 5.5,0 10.5-4.5 10.5-10zM 62.5,267.5l 35.5,0 c 5.5,0 9.5-4.5 9.5-10l0-18.5 l 251,0 l0-29.5 l-251,0 l0-18.5 c0-5.5 -4-10.5 -9.5-10.5l-35.5,0 c-5.5,0 -10.5,5 -10.5,10.5l0,18.5 l-52,0 l0,29.5 l 52,0 l0,18.5 
c0,5.5 5,10 10.5,10zM 257,164.5l 35.5,0 c 5.5,0 10-4.5 10-10l0-18.5 l 56,0 l0-29.5 l-56,0 l0-18.5 c0-5.5 -4.5-10.5 -10-10.5l-35.5,0 c-5.5,0 -10,5 -10,10.5l0,18.5 l-247,0 l0,29.5 l 247,0 l0,18.5 c0,5.5 4.5,10 10,10z" horiz-adv-x="358"  />
<glyph unicode="&#xe017;" d="M0,375l0-302 c0-8.5 7-15.5 15.5-15.5l 106,0 c 8,0 14.5,7 14.5,15.5l0,302 c0,8.5 -6.5,15.5 -14.5,15.5l-106,0 c-8.5,0 -15.5-7 -15.5-15.5zM 196.5,375l0-302 c0-8.5 7-15.5 15-15.5l 106,0 c 8.5,0 15.5,7 15.5,15.5l0,302 c0,8.5 -7,15.5 -15.5,15.5l-106,0 c-8,0 -15-7 -15-15.5z" horiz-adv-x="332.5"  />
<glyph unicode="&#xe018;" d="M 29.5,395.5l 299,0 c 16.5,0 30-13 30-29.5l0-191 c0-16.5 -13.5-30.5 -30-30.5l-116.5,0 l0-49.5 l 85,0 c 12.5,0 13.5-41 15-42.5l-265.5,0 s0,42.5 15,42.5l 85,0 l0,49.5 l-117,0 c-16.5,0 -29.5,14 -29.5,30.5l0,191 c0,16.5 13,29.5 29.5,29.5zM 29.5,175l 299,0 l0,191 l-299,0 l0-191 z" horiz-adv-x="358"  />
<glyph unicode="&#xe019;" d="M 293.5,403.5l-54.5-49s 18-11 34.5-26.5c 16-15.5 27.5-33 27.5-33l 46.5,55.5s-0.5,10 -22.5,31.5c-22.5,21.5 -31.5,21.5 -31.5,21.5zM 116,129l-2.5-24l 173,180s-11.5,16 -25.5,29.5c-14.5,14 -31,25 -31,25l-173-180l 27,1.5l 3-29zM0,52.5l 43,88l 24,2l 2-27.5l 29-4l-3-22l-87-44z" horiz-adv-x="347.5"  />
<glyph unicode="&#xe01a;" d="M0,314c0-15 5.5-31.5 12.5-49s 16-34 23-46.5c 19-33 43.5-65.5 71.5-92.5s 61-49.5 98-63c 21.5-8.5 43-18 67-18c 12,0 29,4.5 44.5,11c 15,6.5 28.5,16.5 33.5,28.5c 2,4.5 4.5,10.5 6,17.5c 1.5,6.5 2.5,13 2.5,17.5c0,2.5 0,5 -0.5,5.5c-1.5,3 -5,5.5 -9,8c-9,4.5 -10.5,6 -24,14c-14,8 -28.5,17 -41,23.5
c-6,3.5 -10,5 -11.5,5c-8,0 -18-11 -26.5-23c-9-12 -19-23 -26-23c-3.5,0 -7,1.5 -11,4s-8,4.5 -10.5,6c-44,25 -73.5,54.5 -98.5,98c-3,5 -10,15.5 -10,21c0,6.5 9,14 18,22c 8.5,7.5 17.5,16.5 17.5,27.5c0,1.5 -1,6 -3,12.5c-4.5,13 -10.5,28 -15.5,42.5c-2.5,7 -4.5,12 -5,14.5c-1,1.5 -1.5,3.5 -2,6
s-1.5,4.5 -2,6.5c-1.5,4.5 -4,8 -6.5,10c-2.5,1 -8.5,2.5 -14.5,3c-6,0 -13,0.5 -16,0.5c-1.5,0 -3.5,0 -5.5-0.5l-6.5,0 c-16-7 -27.5-21 -36-37.5c-8-16.5 -13-35 -13-51.5z" horiz-adv-x="358"  />
<glyph unicode="&#xe01b;" d="M 261,54.5l0,286 l-261,0 l0-286 l 261,0 zM 23.5,122l0,195 l 214,0 l0-195 l-214,0 zM 333,393.5l0-285.5 l-59,0 l0,67 l 35,0 l0,195 l-214,0 l0-19 l-23.5,0 l0,42.5 l 261.5,0 z" horiz-adv-x="332.5"  />
<glyph unicode="&#xe01c;" d="M 251.5,268l-136,123.5c 20,7.5 41,12 63.5,12c 25.5,0 50.5-6 72.5-15.5l0-120 zM 164.5,322l-158.5-145c-4,15 -6,30.5 -6,47c0,69 39,129.5 96.5,159zM 271,165l0,213 c 52-31 87.5-88.5 87.5-154c0-20.5 -4-40.5 -10-59l-77.5,0 zM 85.5,223.5l0-152 c-33,20 -58,50 -72.5,86zM 104.5,146l 236,0 
c-29-59.5 -90.5-101 -161.5-101c-26.5,0 -52,6.5 -74.5,16.5l0,84.5 z" horiz-adv-x="358"  />
<glyph unicode="&#xe01d;" d="M 108.5,416c 58,0 104.5-47.5 104.5-104.5c0-57.5 -106.5-279.5 -106.5-279.5s-106.5,222 -106.5,279.5c0,57 46.5,104.5 104.5,104.5l 2,0 l 2,0 zM 106.5,272.5c 26,0 47.5,22 47.5,48.5c0,26 -21.5,47.5 -47.5,47.5c-26.5,0 -48-21.5 -48-47.5c0-26.5 21.5-48.5 48-48.5z" horiz-adv-x="212.5"  />
<glyph unicode="&#xe01e;" d="M 149,100l-2.5-9c-3.5-14.5 -11.5-28 -18.5-39c 17-4.5 33.5-7 51-7c 49.5,0 94,19.5 127,52c 32.5,32.5 52.5,77.5 52.5,127s-20,94.5 -52.5,127c-33,32.5 -77.5,52.5 -127,52.5s-94-20 -126.5-52.5c-33-32.5 -52.5-77.5 -52.5-127c0-37 10.5-71 30-99c 19-28 46-51 77-64.5c-0.5,12.5 0.5,26.5 3.5,40
c 0.5,4 2,10 4,18c 1.5,7 4,17 7,30c 3,12.5 7,29 11.5,50c-1.5,3 -2.5,6 -3,9.5c-2,6.5 -3,12.5 -2.5,19c0,26 15,46.5 35,46.5c 16.5,0 24-12.5 24-27c0-8 -2.5-17.5 -6-29c-4-12 -7.5-22.5 -10-34.5c-2.5-9.5 0-18 5.5-24.5c 5.5-6 14-10 23-10c 17,0 31,10.5 41,28s 16,41.5 16,67.5c0,19.5 -6.5,36 -19.5,48.5
s-31.5,19.5 -55.5,19.5c-27,0 -49-9.5 -64.5-25.5s-24-37.5 -24-60.5c0-14.5 4.5-25.5 12.5-34.5c 2.5-4 3.5-5.5 2.5-10c-0.5-1.5 -1.5-4 -2-7c-1.5-6.5 -2-15 -11-12c-25,10 -36.5,38 -36.5,69c0,25.5 10.5,53 32,74.5c 21.5,22 54,37 96,37c 34.5,0 63-12 83-31.5c 20-19 30.5-45 30.5-71
c0-35.5 -9.5-66 -26.5-88s-41.5-35 -70-35c-19.5,0 -37.5,10 -44,22.5c-3-11 -5-19 -6.5-25c-1.5-6.5 -2.5-12 -3.5-15z" horiz-adv-x="358"  />
<glyph unicode="&#xe01f;" d="M 196,340.5l-7.5-7.5l 64-5.5l 38.5,38.5c 6,6 17,15 33,25s 26.5,13 30.5,9c 11-11 0-32.5 -33-65l-38-38l 5.5-64l 7.5,7c 6,6.5 12.5,6.5 17.5,1.5c 6-6 3.5-14.5 -8.5-26.5l-12-12.5l 6-43l 8.5,9c 5.5,6 11.5,6 17,1c 6-6 5-13.5 -3-21.5l-18-18c 7-48 8-75 2.5-80.5
c-2.5-2 -6-4 -11-5c-4.5-0.5 -8.5,0 -11,2c-2,2.5 -5,11.5 -8,27c-3.5,16 -12,43 -27,81c-14.5,38.5 -25,60 -30,65.5c-2,2 -5,2 -8.5,0c-3.5-1.5 -16-12 -36-31.5c-20-20 -38.5-36 -56-48.5c-0.5-3 1-13 3.5-29.5s 3.5-27.5 3-31.5c-1-4 -5-9.5 -11.5-16c-3.5-3.5 -6-5.5 -8.5-6
c-6.5,6.5 -16.5,27.5 -30,62c-37.5,16.5 -58,27 -62,31c0,2 2,5 5.5,8.5c 6.5,6.5 12,10.5 16.5,11c 4,1 14.5-0.5 31-3.5c 16.5-2.5 26.5-3.5 30-3.5c 12,18 34.5,44.5 69.5,79.5c 10,11 13,18 9.5,21.5c-5,5.5 -27,15.5 -65,30c-38.5,14.5 -65,24 -81,27c-16,3.5 -25,6 -27,8.5c-2.5,2 -3,6 -2,11c 0.5,5 2.5,8.5 5,11
c 5,5 32,4.5 80.5-2.5l 17.5,18c 8,7.5 15.5,8.5 21.5,2.5c 5.5-5 5-11 -0.5-16.5l-9-8.5l 43-6l 12,11.5c 12,12 20.5,14.5 26.5,8.5c 5.5-5.5 5-11 -1-17.5z" horiz-adv-x="358"  />
<glyph unicode="&#xe020;" d="M0,373l0-302.5 c0-5.5 2.5-10 7.5-13c 2-1.5 5.5-2 8-2s 4.5,0.5 7,2l 262,151c 5,3.5 8,8 8,13.5c0,5 -3,9.5 -8,13l-262,151c-9,6.5 -22.5-1.5 -22.5-13z" horiz-adv-x="292"  />
<glyph unicode="&#xe021;" d="M0,224c0-49.5 19.5-94.5 52.5-127c 32.5-32.5 77-52 126.5-52s 94,19.5 127,52c 32.5,32.5 52.5,77.5 52.5,127s-20,94.5 -52.5,127c-33,32.5 -77.5,52.5 -127,52.5s-94-20 -126.5-52.5c-33-32.5 -52.5-77.5 -52.5-127zM 54,224c0,35 14,66 36.5,88.5s 53.5,37 88.5,37s 66.5-14.5 89-37
c 23-22.5 36.5-53.5 36.5-88.5s-13.5-66 -36.5-88.5c-22.5-22.5 -53.5-37 -89-37c-35,0 -66,14.5 -88.5,37s-36.5,53.5 -36.5,88.5zM 130.5,294l0-140.5 c0-2.5 1-4.5 3.5-6c 1-0.5 2.5-1 3.5-1s 3,0.5 4,1l 122,70.5c 2,1 4,3 4,6s-2,5 -4,6l-122,71c-1.5,1 -4.5,1 -7.5,0c-2.5-1.5 -3.5-4.5 -3.5-7z" horiz-adv-x="358"  />
<glyph unicode="&#xe022;" d="M 219,263.5l 139.5,0 l0-79.5 l-139.5,0 l0-138.5 l-79.5,0 l0,138.5 l-139.5,0 l0,79.5 l 139.5,0 l0,139.5 l 79.5,0 l0-139.5 z" horiz-adv-x="358"  />
<glyph unicode="&#xe023;" d="M 227,306.5l 60.5,0 c 14.5,0 26.5-11.5 26.5-26.5l0-91 l-144,0 l0,106 c-5,1.5 -9.5,3.5 -12.5,6.5c-0.5,0 -0.5,0.5 -1,0.5c0,0 0-0.5 -0.5-0.5c-3.5-3 -7.5-5 -12-6.5l0-106 l-144,0 l0,91 c0,15 11.5,26.5 26,26.5l 61,0 c-7,3.5 -13.5,8.5 -19,13c-24,23 -28.5,55 -9.5,73c 8,7 18.5,11 30,11c 16.5,0 33.5-6.5 48-20
c 8-7.5 15.5-18 20-28c 5,10 12.5,20.5 20.5,28c 14,13.5 32,20 48,20c 12,0 22.5-4 30-11c 19-18 14.5-50 -10-73c-5-4.5 -11.5-9.5 -18-13zM 138,321c 2,4.5 -3,27.5 -19.5,43c-8.5,8 -20,12.5 -30,12.5c-3,0 -8-0.5 -11.5-3.5c-1-1 -4-3 -4-8.5c0-6.5 4-16.5 13.5-25c 12-11.5 31-19.5 45-19.5
c 4.5,0 6.5,1 6.5,1zM 176,321c0,0 2.5-1 6.5-1c 14,0 33,8 45,19.5c 9.5,8.5 12.5,18.5 12.5,25c0,5.5 -2.5,7.5 -3,8.5c-3.5,3 -9,3.5 -12,3.5c-9.5,0 -21.5-4.5 -30-12.5c-16-15.5 -21.5-38 -19-43.5l0,0.5 zM 144,45l-118,0 c-14.5,0 -26,11.5 -26,26l0,91.5 l 144,0 l0-117.5 zM 287.5,45l-117.5,0 l0,117.5 l 144,0 l0-91.5 c0-14.5 -12-26 -26.5-26z
" horiz-adv-x="313.5"  />
<glyph unicode="&#xe024;" d="M 90.5,369l-5.5-43l 188.5,0 l-5.5,43c0,13 -10.5,23 -23.5,23l-131,0 c-13,0 -23-10 -23-23zM 23,302.5l 312.5,0 c 13,0 23-10 23-23l0-137 c0-13 -10-23 -23-23l-42.5,0 l0-63.5 l-227.5,0 l0,63.5 l-42.5,0 c-13,0 -23,10 -23,23l0,137 c0,13 10,23 23,23zM 270,79l0,148.5 l-181.5,0 l0-148.5 l 181.5,0 zM 243,184.5l-130,0 
c-3,0 -5.5,3 -5.5,6l0,7 c0,3 2.5,5.5 5.5,5.5l 130,0 c 3,0 6-2.5 6-5.5l0-7 c0-3 -3-6 -6-6zM 243,143l-130,0 c-3,0 -5.5,3 -5.5,6l0,7 c0,3 2.5,5.5 5.5,5.5l 130,0 c 3,0 6-2.5 6-5.5l0-7 c0-3 -3-6 -6-6zM 243,101.5l-130,0 c-3,0 -5.5,3 -5.5,6l0,7 c0,3 2.5,5.5 5.5,5.5l 130,0 c 3,0 6-2.5 6-5.5l0-7 
c0-3 -3-6 -6-6z" horiz-adv-x="358"  />
<glyph unicode="&#xe025;" d="M 153,344.5l-13,20c-90-60.5 -140-134 -140-194.5c0-58.5 43-86 79.5-86c 46,0 78.5,39 78.5,80c0,34.5 -22,64 -51.5,75c-8.5,3 -16.5,5.5 -16.5,20c0,18.5 13.5,46 63,85.5zM 351.5,344.5l-13,20c-89-60.5 -140-134 -140-194.5c0-58.5 44-86 80.5-86c 46.5,0 79.5,39 79.5,80
c0,34.5 -22.5,64 -53,75c-8.5,3 -16,5.5 -16,20c0,18.5 14,46 62,85.5z" horiz-adv-x="358"  />
<glyph unicode="&#xe026;" d="M 105,221l0,0.5 c-1,8 -3.5,16.5 -7.5,23.5c-3.5,6 -8.5,11.5 -14,15.5c 7,61 59,108 121.5,108s 114-47 121-108c-5-4 -10-9.5 -13.5-15.5c-4-7 -7-15.5 -8-23.5l0-0.5 l-4-38.5c-28.5,18 -61.5,27.5 -95.5,27.5s-67.5-9.5 -96-27.5zM 75,99.5l-29.5,69c-25,0.5 -45.5,21.5 -45.5,46.5c0,26 21,47 47,47
c 17,0 32-9 40-23c 3.5-5.5 5.5-12 6.5-19l0-0.5 l 14.5-134.5c0-2.5 -2-5.5 -4.5-5.5l-24,0 c-2.5,0 -4.5,3 -4.5,5.5l0,14.5 zM 316,219.5l0,0.5 c 1,7 3,13.5 6.5,19c 8,14 23,23 40,23c 26,0 47-21 47-47c0-25 -20.5-46 -45.5-46.5l-29-69l0-14.5 c0-2.5 -2.5-5.5 -5-5.5l-24,0 c-2.5,0 -4.5,3 -4.5,5.5zM 116,114.5l-5.5,55.5
c 27,18 59.5,28 94.5,28s 67-10 94-28l-5.5-55.5l-177.5,0 z" horiz-adv-x="409.5"  />
<glyph unicode="&#xe027;" d="M 42.5,300l0,47.5 c0,30.5 27.5,56 62.5,56c 34.5,0 62.5-25.5 62.5-56l0-47.5 l-125,0 zM 211,297l0-95.5 c-20.5-56 -81-64.5 -81-64.5l0-63.5 l 66.5,0 l0-28.5 l-183,0 l0,28.5 l 67,0 l0,63.5 s-60,8.5 -80.5,64.5l0,95.5 l 24.5,11.5l0-87 s 7.5-58.5 80.5-58.5s 81.5,58.5 81.5,58.5l0,87 zM 167.5,283.5l0-43 c0-30.5 -28-56 -62.5-56
c-35,0 -62.5,25.5 -62.5,56l0,43 l 125,0 z" horiz-adv-x="210.5"  />
<glyph unicode="&#xe028;" d="M 268,211.5l 47,0 c0-41 -15.5-82.5 -46-113c-61.5-61.5 -161.5-61.5 -223,0s-61.5,161.5 0,223c 28,28 64.5,43 101.5,45.5l0,44 l 120.5-69.5l-120.5-70l0,48.5 c-25-2 -49-13 -68-32c-43.5-43 -43.5-113 0-156c 43-43.5 113-43.5 156,0c 22,21.5 33,51 32.5,79.5z" horiz-adv-x="314.5"  />
<glyph unicode="&#xe029;" d="M 179,403.5c 99,0 179.5-80.5 179.5-179.5s-80.5-179 -179.5-179s-179,80 -179,179s 80,179.5 179,179.5zM 180,198l 57-57.5c 7-7 18.5-7 25.5,0c 6.5,6.5 6.5,18 0,25l-57,57.5l 57,57.5c 6.5,7 6.5,18.5 0,25c-7,7 -18.5,7 -25.5,0l-57-57.5l-57,57.5c-7,7 -18.5,7 -25.5,0
c-6.5-6.5 -6.5-18 0-25l 57-57.5l-57-57.5c-6.5-7 -6.5-18.5 0-25c 7-7 18.5-7 25.5,0z" horiz-adv-x="358"  />
<glyph unicode="&#xe02a;" d="M 226.5,393.5l0-47.5 l-204,0 c-8,0 -15-7 -15-15.5l0-132 l 53.5,47.5c 2.5,3 5,4 7.5,5.5l0,33.5 l 158,0 l0-47.5 c0-14 8.5-18 20-8l 80.5,74c 3.5,3 6,7 6,12c0,4.5 -2.5,9 -6,12l-80.5,74c-11.5,10 -20,6 -20-8zM 325,249.5l-53-48c-2.5-2 -6-3.5 -8-5l0-33.5 l-157.5,0 l0,48 c0,14 -8.5,17.5 -20,7.5l-81-74
c-3.5-3 -5.5-7 -5.5-12c0-4.5 2-9 5.5-12l 81-73.5c 11.5-10 20-6.5 20,7.5l0,47.5 l 203.5,0 c 8.5,0 15,7 15,15.5l0,132 z" horiz-adv-x="332.5"  />
<glyph unicode="&#xe02b;" d="M0,255.5l 137-127l0,63.5 s 194.5,50 246.5-122.5c0,0 18.5,247 -246.5,247l0,62 z" horiz-adv-x="384"  />
<glyph unicode="&#xe02c;" d="M 124,223l-123,123l 59.5,57.5l 177-177.5l-181.5-181l-56,55.5z" horiz-adv-x="237.5"  />
<glyph unicode="&#xe02d;" d="M0,334.5l0,49.5 c 19.5,4 40,6.5 61,6.5c 150,0 272-122 272-272c0-21 -3-41.5 -7-61l-49,0 c 5.5,19.5 8,40 8,61c0,124 -100,224.5 -224,224.5c-21,0 -41.5-3 -61-8.5zM0,220.5l0,53 c 19,7.5 39.5,11.5 61,11.5c 91.5,0 166.5-75 166.5-166.5c0-21.5 -4.5-42 -12-61l-52.5,0 c 11,18 16.5,39 16.5,61
c0,65.5 -53,119 -118.5,119c-22.5,0 -43-6 -61-17zM 61,179.5c 34,0 61-27 61-61s-27-61 -61-61s-61,27 -61,61s 27,61 61,61z" horiz-adv-x="332.5"  />
</font>
</defs>
</svg>
